<?xml version="1.0" encoding="UTF-8"?>
<svg width="226px" height="160px" viewBox="0 0 226 160" version="1.1" xmlns="http://www.w3.org/2000/svg" xmlns:xlink="http://www.w3.org/1999/xlink">
    <!-- Generator: Sketch 52.4 (67378) - http://www.bohemiancoding.com/sketch -->
    <title>融e借</title>
    <desc>Created with Sketch.</desc>
    <g id="Page-1" stroke="none" stroke-width="1" fill="none" fill-rule="evenodd">
        <g id="融e借" fill="#FF7EAC">
            <g id="信用卡" fill-rule="nonzero">
                <path d="M201.887884,13.7493606 C204.639663,13.7493606 207.255214,14.8405796 209.244123,16.8320546 C211.233032,18.8235294 212.322845,21.4424552 212.322845,24.1977835 L212.322845,135.99318 C212.322845,138.748508 211.233032,141.367434 209.244123,143.358909 C207.255214,145.350384 204.639663,146.441603 201.887884,146.441603 L23.975889,146.441603 C21.2241108,146.441603 18.6085592,145.350384 16.6196503,143.358909 C14.6307414,141.367434 13.5409281,138.748508 13.5409283,135.99318 L13.5409283,24.1977835 C13.5409283,21.4424552 14.6307414,18.8235294 16.6196503,16.8320546 C18.6085592,14.8405798 21.2241108,13.7493606 23.975889,13.7493606 L201.887884,13.7493606 Z M201.887884,0.190963274 L23.975889,0.190963274 C10.7891501,0.190963274 0.0272452604,10.9940323 0.0272452604,24.1705029 L0.0272452604,135.99318 C0.0272452604,149.196931 10.8163954,159.97272 23.975889,159.97272 L201.887884,159.97272 C215.074623,159.97272 225.836528,149.169651 225.836528,135.99318 L225.836528,24.1977835 C225.836528,10.9940325 215.047378,0.190963478 201.887884,0.190963274 Z" id="形状"></path>
            </g>
            <path d="M138.003584,73.9020453 C141.802294,73.9020453 144.885305,70.8236223 144.885305,67.0203248 C144.885305,63.2170274 141.802294,60.1386044 138.003584,60.1386044 L124.185089,60.1386044 L139.320287,45.8934431 C142.091326,43.2875651 142.219785,38.9337298 139.609319,36.1626904 C136.998853,33.3916511 132.649606,33.2723679 129.883154,35.8690704 L113.298208,51.4859881 L96.7086738,35.8690704 C93.9376344,33.2723679 89.5883871,33.3916511 86.9825088,36.1626904 C84.3766305,38.9337298 84.5050895,43.2875651 87.2715411,45.8934431 L102.406738,60.1386044 L87.8817204,60.1386044 C84.0830108,60.1386044 81,63.2170274 81,67.0203248 C81,70.8236223 84.0830108,73.9020453 87.8817204,73.9020453 L106.544946,73.9020453 L106.544946,86.88097 L87.8817204,86.88097 C84.0830108,86.88097 81,89.9639808 81,93.7626904 C81,97.5659879 84.0830108,100.644411 87.8817204,100.644411 L106.544946,100.644411 L106.544946,118.825916 C106.544946,122.629214 109.627957,125.707637 113.426667,125.707637 C117.225376,125.707637 120.308387,122.629214 120.308387,118.825916 L120.308387,100.644411 L137.998996,100.644411 C141.797706,100.644411 144.880717,97.5659879 144.880717,93.7626904 C144.880717,89.9639808 141.797706,86.88097 137.998996,86.88097 L120.308387,86.88097 L120.308387,73.9020453 L138.003584,73.9020453 Z" id="路径"></path>
        </g>
    </g>
</svg>