<?xml version="1.0" encoding="UTF-8"?>
<svg width="200px" height="200px" viewBox="0 0 200 200" version="1.1" xmlns="http://www.w3.org/2000/svg" xmlns:xlink="http://www.w3.org/1999/xlink">
    <!-- Generator: Sketch 52.4 (67378) - http://www.bohemiancoding.com/sketch -->
    <title>形状</title>
    <desc>Created with Sketch.</desc>
    <g id="Page-1" stroke="none" stroke-width="1" fill="none" fill-rule="evenodd">
        <g id="A-结售汇产品" fill="#76CEFF" fill-rule="nonzero">
            <path d="M170,0 L150,0 C146.32,0 152.13,8.66 152.13,12.29 C152.13,15.92 156.32,20 160,20 L170,20 C177.93,20 180,22.18 180,30 L180,170 C180,177.81 177.93,180 170,180 L30,180 C22.07,180 20,177.81 20,170 L20,30 C20,22.18 18.7,19.55 26.63,19.55 L43.34,19.55 C47.02,19.55 48.44,15.92 48.44,12.29 C48.44,8.66 53.69,0 50,0 L30,0 C11.3,0 0,4.92 0,20 L0,172.36 C0,188.55 1.87,200 20,200 L180,200 C198.13,200 200,190.51 200,172.36 L200,20 C200,4.92 197.29,0 180,0 L170,0 Z M40,60 C40,63.63 40.06,63.13 40,70 L150,70 C161.5,71.56 160,63.63 160,60 C160,51.37 153.69,50 150,50 L40,50 C41.94,52.5 40,63.25 40,70 L40,60 Z M150,90 L40,90 C36.32,90 39.61,95.78 40,100 C40.31,103.42 36.32,110 40,110 L160,110 C160.57,103.44 161.18,103.43 160,100 C158.48,96.41 159.94,91.25 160,90 L150,90 Z M150,130 L40,130 C36.32,130 40,136.37 40,140 C40,143.63 36.32,150 40,150 L150,150 C153.69,150 152.13,150.27 160,150 C162.48,149.73 160.57,132.81 160,130 L150,130 Z M80,20 L120,20 C125.39,20 130,16.15 130,10 C130,3.86 128.9,0 123.23,0 L77.06,0 C71.39,0 70,3.86 70,10 C70,16.15 74.34,20 80,20 Z" id="形状"></path>
        </g>
    </g>
</svg>