<?xml version="1.0" encoding="UTF-8"?>
<svg width="263px" height="194px" viewBox="0 0 263 194" version="1.1" xmlns="http://www.w3.org/2000/svg" xmlns:xlink="http://www.w3.org/1999/xlink">
    <!-- Generator: Sketch 52.4 (67378) - http://www.bohemiancoding.com/sketch -->
    <title>分组 9</title>
    <desc>Created with Sketch.</desc>
    <g id="Page-1" stroke="none" stroke-width="1" fill="none" fill-rule="evenodd">
        <g id="分组-9" fill="#449DFF" fill-rule="nonzero">
            <g id="zhanghao-(1)">
                <path d="M122.11875,100.1625 C136.73125,90.6625 146.23125,73.8375 146.23125,54.8375 C146.23125,24.8625 121.39375,0 91.40625,0 C61.41875,0 36.56875,24.85 36.56875,54.825 C36.56875,73.8375 46.08125,90.65 60.70625,100.15 C24.2393448,113.136282 -0.0786769879,147.702434 0.01875,186.4125 C0.01875,190.8125 2.94375,193.7375 7.33125,193.7375 C11.73125,193.7375 14.64375,190.8125 14.64375,186.4125 C14.64375,144.010838 49.0170883,109.6375 91.41875,109.6375 C133.820412,109.6375 168.19375,144.010838 168.19375,186.4125 C168.19375,190.8125 171.10625,193.7375 175.50625,193.7375 C179.89375,193.7375 182.81875,190.8125 182.81875,186.4125 C182.80625,146.95 157.21875,113.3125 122.11875,100.1625 Z M51.19375,54.825 C51.19375,32.9 69.48125,14.6125 91.40625,14.6125 C113.33125,14.6125 131.60625,32.9 131.60625,54.825 C131.60625,76.7625 113.33125,95.0375 91.40625,95.0375 C69.48125,95.0375 51.19375,76.7625 51.19375,54.825 Z" id="形状"></path>
            </g>
            <rect id="矩形" x="163" y="73" width="100" height="16" rx="8"></rect>
            <rect id="矩形" x="183" y="97" width="80" height="16" rx="8"></rect>
            <rect id="矩形" x="203" y="121" width="60" height="16" rx="8"></rect>
        </g>
    </g>
</svg>