<?xml version="1.0" encoding="UTF-8"?>
<svg width="192px" height="136px" viewBox="0 0 192 136" version="1.1" xmlns="http://www.w3.org/2000/svg" xmlns:xlink="http://www.w3.org/1999/xlink">
    <!-- Generator: Sketch 52.4 (67378) - http://www.bohemiancoding.com/sketch -->
    <title>自动还款</title>
    <desc>Created with Sketch.</desc>
    <g id="Page-1" stroke="none" stroke-width="1" fill="none" fill-rule="evenodd">
        <g id="自动还款" transform="translate(3.000000, 3.000000)" fill="#B5ACEC">
            <g id="分期" stroke="#B5ACEC" stroke-width="6">
                <path d="M108.587881,125.015588 L13.0714496,125.015588 C5.93529941,125.015588 0.137177344,119.217466 0.137177148,112.081316 L0.137177148,13.1141799 C0.137177148,5.97802969 5.93529922,0.179907617 13.0714496,0.179907617 L154.855487,0.179907617 C161.991637,0.179907617 167.789759,5.97802969 167.789759,13.1141799 L167.789759,47.8090156 C167.789759,49.6165273 166.310886,51.0954006 164.503374,51.0954006 C162.695863,51.0954006 161.216989,49.6165273 161.216989,47.8090156 L161.216989,13.1141799 C161.216989,9.59305313 158.35314,6.75267754 154.855487,6.75267754 L13.0714496,6.75267754 C9.55032285,6.75267754 6.70994727,9.61652734 6.70994727,13.1141799 L6.70994727,112.081316 C6.70994727,115.602443 9.57379707,118.442818 13.0714496,118.442818 L108.587881,118.442818 C110.395393,118.442818 111.874266,119.921692 111.874266,121.729203 C111.874266,123.536715 110.395393,125.015588 108.587881,125.015588 Z" id="路径"></path>
                <path d="M5.77098008,30.1799076 L162.155957,30.1799076 L162.155957,38.0437574 L5.77098008,38.0437574 L5.77098008,30.1799076 Z M151.216989,129.475682 C132.155957,129.475682 116.662999,113.95925 116.662999,94.8982174 C116.662999,75.8371846 132.179431,60.3442268 151.216989,60.3442268 C170.254548,60.3442268 185.794454,75.8606588 185.794454,94.9216916 C185.794454,113.982724 170.278022,129.475682 151.216989,129.475682 Z M151.216989,66.4475133 C135.512764,66.4475133 122.766285,79.2174664 122.766285,94.8982174 C122.766285,110.602443 135.536238,123.372396 151.216989,123.372396 C166.897741,123.372396 179.691168,110.602443 179.691168,94.9216916 C179.691168,79.2174662 166.921215,66.4475133 151.216989,66.4475133 Z" id="形状" fill-rule="nonzero"></path>
            </g>
            <path d="M154.13478,87.7004878 L154.13478,83.0952458 C154.13478,81.0689394 152.476893,79.4110522 150.450587,79.4110522 C149.468135,79.4110522 148.547087,79.8101732 147.84095,80.4856087 L136.082232,92.2443265 C134.639256,93.6873023 134.639256,96.0206249 136.082232,97.4636007 L147.84095,109.222319 C148.547087,109.928456 149.468135,110.296875 150.450587,110.296875 C152.476893,110.296875 154.13478,108.638988 154.13478,106.612681 L154.13478,102.191649 C157.297046,102.160948 159.476861,102.437262 163.437369,106.39777 C164.143506,107.103907 165.187361,107.318819 166.108409,106.919698 C167.029458,106.520577 167.612788,105.63023 167.612788,104.647778 C167.612788,104.463569 167.551385,100.380254 165.647885,96.2969394 C164.0207,92.7355523 160.704926,88.5601329 154.13478,87.7004878 Z M154.317455,97.7214943 L151.769221,97.7214943 C150.41835,97.7214943 149.313092,98.8267524 149.313092,100.177623 L149.313092,104.076728 L140.501729,95.2960669 L149.313092,86.4847039 L149.313092,90.4145104 C149.313092,91.7653813 150.41835,92.8706394 151.769221,92.8706394 C156.31306,92.8706394 159.413923,94.7741394 161.25602,98.6732443 C161.348124,98.8267524 161.409528,99.010962 161.470931,99.1644701 C158.922697,97.8750024 156.650778,97.7214943 154.317455,97.7214943 Z" id="形状" fill-rule="nonzero"></path>
            <path d="M68.6912029,72.9835517 C71.0696589,72.9835517 73,71.0560831 73,68.6747546 C73,66.2934261 71.0696589,64.3659575 68.6912029,64.3659575 L60.0391382,64.3659575 L69.5156194,55.4467474 C71.2506284,53.8151496 71.3310593,51.0891172 69.6965889,49.3541082 C68.0621185,47.6190993 65.3389587,47.5444134 63.6068222,49.1702663 L53.2226211,58.9483633 L42.8355476,49.1702663 C41.1005386,47.5444134 38.3773788,47.6190993 36.7457809,49.3541082 C35.1141829,51.0891172 35.1946139,53.8151496 36.9267504,55.4467474 L46.4032316,64.3659575 L37.3087971,64.3659575 C34.9303411,64.3659575 33,66.2934261 33,68.6747546 C33,71.0560831 34.9303411,72.9835517 37.3087971,72.9835517 L48.994255,72.9835517 L48.994255,81.1099431 L37.3087971,81.1099431 C34.9303411,81.1099431 33,83.0402843 33,85.4187403 C33,87.8000688 34.9303411,89.7275374 37.3087971,89.7275374 L48.994255,89.7275374 L48.994255,101.111379 C48.994255,103.492708 50.9245961,105.420177 53.3030521,105.420177 C55.6815081,105.420177 57.6118492,103.492708 57.6118492,101.111379 L57.6118492,89.7275374 L68.6883304,89.7275374 C71.0667864,89.7275374 72.9971275,87.8000688 72.9971275,85.4187403 C72.9971275,83.0402843 71.0667864,81.1099431 68.6883304,81.1099431 L57.6118492,81.1099431 L57.6118492,72.9835517 L68.6912029,72.9835517 Z" id="路径"></path>
        </g>
    </g>
</svg>