<?xml version="1.0" encoding="UTF-8"?>
<svg width="145px" height="197px" viewBox="0 0 145 197" version="1.1" xmlns="http://www.w3.org/2000/svg" xmlns:xlink="http://www.w3.org/1999/xlink">
    <!-- Generator: Sketch 52.4 (67378) - http://www.bohemiancoding.com/sketch -->
    <title>能源</title>
    <desc>Created with Sketch.</desc>
    <g id="Page-1" stroke="none" stroke-width="1" fill="none" fill-rule="evenodd">
        <g id="能源" transform="translate(3.000000, 3.000000)" fill="#F5A623" fill-rule="nonzero" stroke="#F5A623" stroke-width="6">
            <path d="M59.1050781,160.968164 C59.1050781,163.566211 60.8380859,165.298242 63.4351563,165.298242 C92.0179688,165.298242 115.407031,141.911133 115.407031,113.329102 C115.407031,110.729102 113.67207,108.99707 111.075,108.99707 C108.479102,108.99707 106.744141,110.731055 106.744141,113.329102 C106.742969,137.150195 87.2560547,156.638086 63.4351563,156.638086 C60.8361328,156.638086 59.1050781,158.370117 59.1050781,160.968164 Z M0.14296875,121.329102 C0.14296875,159.439063 31.325,190.62207 69.4371094,190.62207 C107.549023,190.62207 138.730078,159.439063 138.730078,121.329102 C138.730078,73.6890625 78.0970703,0.0671875 69.4371094,0.0671875 C60.775,0.0671875 0.14296875,73.6890625 0.14296875,121.329102 Z M69.4371094,10.4589844 C73.7671875,10.4589844 130.066016,78.0210937 130.066016,119.164062 C130.066016,153.810156 102.783984,181.961133 69.4371094,181.961133 C36.0900391,181.961133 8.80507813,153.80918 8.80507813,119.164258 C8.80507813,78.0220703 65.1060547,10.4589844 69.4371094,10.4589844 Z" id="形状"></path>
        </g>
    </g>
</svg>