<?xml version="1.0" encoding="UTF-8"?>
<svg width="168px" height="198px" viewBox="0 0 168 198" version="1.1" xmlns="http://www.w3.org/2000/svg" xmlns:xlink="http://www.w3.org/1999/xlink">
    <!-- Generator: Sketch 52.4 (67378) - http://www.bohemiancoding.com/sketch -->
    <title>理财</title>
    <desc>Created with Sketch.</desc>
    <g id="Page-1" stroke="none" stroke-width="1" fill="none" fill-rule="evenodd">
        <g id="理财" transform="translate(3.000000, 0.000000)" fill="#FF5252" fill-rule="nonzero">
            <path d="M159.806688,108.206312 C158.45819,102.935243 156.615357,97.803166 154.302688,92.8783125 C152.133536,88.265189 149.487093,83.8919904 146.406688,79.8303125 C143.653103,76.2014904 140.727076,72.7068097 137.638688,69.3583125 C130.574495,62.0205663 122.536865,55.6868281 113.750688,50.5343125 L112.814688,49.9823125 L49.3026875,49.9823125 L48.3746875,50.5183125 C39.5092609,55.6454495 31.4041507,61.9868231 24.2946875,69.3583125 C21.2546875,72.5103125 18.2946875,76.0543125 15.4786875,79.8943125 C12.6466875,83.7583125 10.0386875,88.1183125 7.7426875,92.8463125 C5.36265325,97.7741835 3.50712801,102.93855 2.2066875,108.254312 C0.793322881,114.083771 0.0975008796,120.064079 0.1346875,126.062313 C0.1346875,136.478313 1.7026875,145.958313 4.7906875,154.246313 C7.87880274,162.601806 13.0045207,170.053896 19.7026875,175.926313 C26.3586875,181.798313 34.9186875,186.350313 45.1586875,189.438313 C55.2066875,192.478313 67.3346875,194.014313 81.2226875,194.014313 C86.0866875,194.014313 95.1026875,193.454313 95.3826875,193.430313 C95.9986875,193.342313 110.574688,191.398313 117.038688,189.438313 C127.198688,186.342313 135.726688,181.798313 142.398688,175.926313 C149.10112,170.052803 154.229771,162.597697 157.318688,154.238313 C160.406688,145.966313 161.966688,136.478313 161.966688,126.062313 C161.966688,119.750313 161.238688,113.750313 159.806688,108.206313 Z M149.822688,151.430312 C147.192325,158.554045 142.825725,164.908713 137.118688,169.918313 C131.302688,175.030313 123.766688,179.022312 114.710688,181.774313 C108.886688,183.550312 94.5346875,185.462312 94.6066875,185.462312 C94.5826875,185.462312 85.9106875,186.006312 81.2226875,186.006312 C68.1266875,186.006312 56.7666875,184.582313 47.4706875,181.774313 C38.3426875,179.014312 30.7906875,175.022312 24.9906875,169.910312 C19.2797119,164.910649 14.9121201,158.560039 12.2866875,151.438312 C9.5266875,144.046312 8.1266875,135.510312 8.1266875,126.046312 C8.1266875,120.390312 8.7426875,115.054312 9.9586875,110.174312 C11.1235821,105.402826 12.7860207,100.766767 14.9186875,96.3423125 C16.9007183,92.233726 19.2432283,88.3090178 21.9186875,84.6143125 C24.5186875,81.0703125 27.2546875,77.7983125 30.0466875,74.8943125 C36.3933152,68.3216627 43.5936292,62.6308316 51.4546875,57.9743125 L110.606688,57.9743125 C118.383705,62.6431113 125.513988,68.31291 131.814688,74.8383125 C134.526688,77.7663125 137.294688,81.0703125 140.030688,84.6703125 C142.670688,88.1183125 145.038688,92.0303125 147.062688,96.3023125 C149.070688,100.526312 150.750688,105.206312 152.046688,110.206312 C153.346399,115.382248 153.986144,120.701806 153.950688,126.038312 C153.966688,135.518312 152.566688,144.062312 149.822688,151.430312 Z" id="形状" stroke="#FF5252" stroke-width="6"></path>
            <path d="M104.134687,122.670313 L104.134687,122.654313 C108.030687,122.630313 111.182688,119.342313 111.182688,115.286313 C111.182688,111.230313 108.030687,107.942313 104.134687,107.918313 L104.134687,107.902313 L89.8466875,107.902313 C89.8786875,107.734313 89.8306875,107.582313 89.8466875,107.422313 L106.582687,89.6223125 C109.318688,86.4223125 107.926687,83.7823125 105.166687,80.8783125 C102.390688,77.9663125 97.8546875,77.3503125 95.6066875,79.8943125 L81.2066875,95.8543125 L65.6626875,79.6863125 C63.6946875,77.6383125 59.8626875,78.3103125 57.1106875,81.1743125 C54.3586875,84.0383125 53.7186875,88.0303125 55.6866875,90.0703125 L71.5826875,106.606313 C71.2952437,106.995153 71.0909977,107.439048 70.9826875,107.910313 L58.0626875,107.910313 L58.0626875,107.926313 L58.0226875,107.926313 C54.1106875,107.926313 50.9346875,111.222313 50.9346875,115.294313 C50.9346875,119.366313 54.1106875,122.670313 58.0226875,122.670313 L58.0626875,122.662313 L58.0626875,122.670313 L72.2226875,122.670313 L72.2226875,130.014313 L58.0626875,130.014313 L58.0626875,130.038313 L58.0226875,130.038313 C54.1106875,130.038313 50.9346875,133.334313 50.9346875,137.414313 C50.9346875,141.486313 54.1106875,144.790313 58.0226875,144.790313 L58.0626875,144.782313 L58.0626875,144.790313 L72.2226875,144.790313 L72.2226875,152.206313 L72.3666875,152.206313 C72.2530854,152.799535 72.1968261,153.402313 72.1986875,154.006313 C72.1986875,159.094313 76.1666875,163.222313 81.0546875,163.222313 C85.9506875,163.222313 89.9186875,159.094313 89.9186875,154.006313 C89.9186875,153.390313 89.8546875,152.782313 89.7426875,152.206313 L89.8306875,152.206313 L89.8306875,144.790313 L104.142687,144.782313 C108.038688,144.758313 111.182688,141.470313 111.182688,137.414313 C111.182688,133.358313 108.030687,130.070313 104.142687,130.046313 L104.142687,130.014313 L89.8226875,130.014313 L89.8226875,122.670313 L104.134687,122.670313 Z M38.0226875,28.2223125 C38.7666875,28.8303125 39.8946875,29.8623125 41.4146875,31.2943125 C43.0866875,32.9023125 44.7826875,34.5343125 46.4226875,36.1503125 C48.4066875,38.1743125 50.6066875,40.3503125 52.9986875,42.6703125 L55.0306875,44.6383125 L107.286688,44.6383125 L109.334688,42.5743125 C111.542688,40.3343125 113.662688,38.2303125 115.726688,36.2383125 C117.446688,34.5503125 119.134688,32.9183125 120.822688,31.3183125 C122.334688,29.8703125 123.446688,28.8463125 124.518688,27.9583125 C125.566688,26.9823125 126.542688,25.8463125 127.438688,24.5423125 C128.462688,23.0383125 129.158688,21.4063125 129.534688,19.6543125 C129.894574,17.9369643 129.894574,16.1636607 129.534688,14.4463125 C129.110688,12.3983125 128.078688,10.5103125 126.222688,8.5743125 C123.526688,6.0623125 120.814688,5.5343125 119.022688,5.5343125 L117.758688,5.6223125 C116.276146,5.83457873 114.830309,6.25190596 113.462688,6.8623125 C112.491078,7.28073704 111.515022,7.68876036 110.534687,8.0863125 C110.526687,8.0863125 110.150687,8.2303125 109.014687,8.2463125 C108.501457,7.7555412 108.017934,7.23461764 107.566687,6.6863125 C106.483633,5.36994195 105.278242,4.1591939 103.966687,3.0703125 C102.366687,1.7263125 99.5266875,0.1263125 95.1186875,0.1263125 C91.7106875,0.1263125 88.6786875,1.1023125 86.3346875,2.9583125 C85.0124303,4.00108565 83.7739685,5.14592722 82.6306875,6.3823125 C82.0706875,6.9823125 81.4946875,7.5423125 80.9346875,8.0463125 C80.4351324,7.63337212 79.9745337,7.17545129 79.5586875,6.6783125 C78.5220679,5.41514317 77.3821349,4.24042349 76.1506875,3.1663125 C74.5746875,1.7823125 71.7506875,0.1263125 67.2706875,0.1263125 C62.8706875,0.1263125 60.0386875,1.7263125 58.4386875,3.0623125 C57.1641935,4.11749488 55.976385,5.27320037 54.8866875,6.5183125 C54.3603342,7.12350228 53.802215,7.7003144 53.2146875,8.2463125 C52.7092578,8.25687085 52.2050702,8.19216227 51.7186875,8.0543125 C50.7637327,7.68435914 49.8142957,7.30031723 48.8706875,6.9023125 C47.4718949,6.26818276 45.99063,5.83457615 44.4706875,5.6143125 L43.2066875,5.5263125 C40.5986875,5.5263125 38.1826875,6.5503125 35.7586875,8.8223125 C34.2871264,10.3091416 33.2283494,12.1537296 32.6866875,14.1743125 C32.1826875,16.0783125 32.1826875,18.0143125 32.6706875,19.8863125 C33.0786875,21.4463125 33.7266875,22.9583125 34.5986875,24.3423125 C35.5266875,25.8303125 36.6946875,27.1423125 38.0226875,28.2223125 Z M40.4466875,16.1343125 C40.6229973,15.5212315 40.9471549,14.9608234 41.3906875,14.5023125 C42.2626875,13.7183125 42.7666875,13.5663125 43.0386875,13.5343125 L43.5906875,13.5743125 C44.2386875,13.6863125 44.9266875,13.9023125 45.6946875,14.2383125 C46.4866875,14.5823125 47.5506875,15.0143125 48.5266875,15.3903125 C49.7026875,15.9023125 51.2066875,16.1903125 52.9906875,16.2383125 L53.2146875,16.2383125 C55.2226875,16.2383125 57.1666875,15.4783125 58.6466875,14.1103125 C59.4466875,13.3743125 60.1826875,12.6063125 60.9266875,11.7583125 C61.732226,10.8341439 62.612537,9.97791436 63.5586875,9.1983125 C64.1426875,8.7103125 65.2626875,8.1263125 67.2626875,8.1263125 C69.2466875,8.1263125 70.3186875,8.6943125 70.8706875,9.1823125 C71.7746875,9.9743125 72.6146875,10.8383125 73.3826875,11.7743125 C74.1106875,12.6543125 74.9346875,13.4783125 75.8386875,14.2223125 C78.8854136,16.7525238 83.3272408,16.6639597 86.2706875,14.0143125 C86.9986875,13.3583125 87.7506875,12.6383125 88.5186875,11.8063125 C89.3346875,10.9183125 90.2786875,10.0543125 91.2946875,9.2383125 C92.4466875,8.3263125 94.0066875,8.1343125 95.1186875,8.1343125 C97.1186875,8.1343125 98.2466875,8.7183125 98.8626875,9.2383125 C99.7826875,9.9983125 100.630688,10.8543125 101.406688,11.7903125 C102.070688,12.5903125 102.766688,13.3423125 103.518688,14.0543125 C105.006688,15.4623125 106.974688,16.2543125 109.022688,16.2543125 L109.150688,16.2543125 C111.022688,16.2223125 112.462688,15.9743125 113.534688,15.5183125 C114.702688,15.0463125 115.710688,14.6143125 116.726688,14.1823125 C117.342688,13.9103125 118.022688,13.7023125 118.654688,13.5903125 L119.182688,13.5503125 C119.729625,13.6507406 120.233956,13.9126582 120.630688,14.3023125 C121.550688,15.3023125 121.662688,15.8463125 121.710688,16.0783125 C121.845365,16.7082545 121.848089,17.3592656 121.718688,17.9903125 C121.564801,18.7146672 121.27134,19.4021264 120.854688,20.0143125 C120.372702,20.719152 119.823461,21.375561 119.214688,21.9743125 C117.879282,23.1116782 116.582548,24.2936811 115.326688,25.5183125 C113.606687,27.1503125 111.878688,28.8143125 110.174688,30.4943125 C108.158688,32.4383125 106.102688,34.4863125 103.958688,36.6543125 L58.2706875,36.6543125 C56.1657062,34.5994888 54.0802789,32.5247287 52.0146875,30.4303125 C50.322737,28.7726535 48.6213762,27.1246269 46.9106875,25.4863125 C45.6712453,24.2819549 44.387702,23.1238307 43.0626875,22.0143125 C41.7601259,20.9512082 40.8321608,19.4989849 40.4146875,17.8703125 C40.2696132,17.2992316 40.2806652,16.6996589 40.4466875,16.1343125 Z" id="形状"></path>
        </g>
    </g>
</svg>