<?xml version="1.0" standalone="no"?><!DOCTYPE svg PUBLIC "-//W3C//DTD SVG 1.1//EN" "http://www.w3.org/Graphics/SVG/1.1/DTD/svg11.dtd"><svg t="1543896747613" class="icon" style="" viewBox="0 0 1024 1024" version="1.1" xmlns="http://www.w3.org/2000/svg" p-id="29889" xmlns:xlink="http://www.w3.org/1999/xlink" width="200" height="200"><defs><style type="text/css"></style></defs><path d="M512.027 966.799c-251.163 0-454.831-203.617-454.831-454.795 0-251.233 203.668-454.803 454.831-454.803 251.191 0 454.775 203.57 454.775 454.803 0 251.177-203.584 454.795-454.775 454.795zM512.027 115.724c-218.796 0-396.246 177.429-396.246 396.28 0 218.769 177.449 396.252 396.246 396.252 218.879 0 396.287-177.483 396.287-396.252 0-218.852-177.408-396.28-396.287-396.28zM527.294 704.443h175.52v-83.764h-175.52v-197.733h175.52v-68.489h-175.52v-72.437h247.346v205.472h-179.17v59.993h179.17v221.503h-247.346v-64.545zM249.455 547.486h179.129v-59.993h-179.129v-205.473h247.387v72.437h-175.644v68.489h175.645v197.733h-175.645v83.763h175.645v64.546h-247.388v-221.502z" fill="#e6e6e6" p-id="29890"></path></svg>