<?xml version="1.0" encoding="UTF-8"?>
<svg width="192px" height="136px" viewBox="0 0 192 136" version="1.1" xmlns="http://www.w3.org/2000/svg" xmlns:xlink="http://www.w3.org/1999/xlink">
    <!-- Generator: Sketch 52.4 (67378) - http://www.bohemiancoding.com/sketch -->
    <title>分期</title>
    <desc>Created with Sketch.</desc>
    <g id="Page-1" stroke="none" stroke-width="1" fill="none" fill-rule="evenodd">
        <g id="分期" transform="translate(3.000000, 3.000000)" fill="#FFC573" stroke="#FFC573">
            <path d="M108.587881,125.015588 L13.0714496,125.015588 C5.93529941,125.015588 0.137177344,119.217466 0.137177148,112.081316 L0.137177148,13.1141799 C0.137177148,5.97802969 5.93529922,0.179907617 13.0714496,0.179907617 L154.855487,0.179907617 C161.991637,0.179907617 167.789759,5.97802969 167.789759,13.1141799 L167.789759,47.8090156 C167.789759,49.6165273 166.310886,51.0954006 164.503374,51.0954006 C162.695863,51.0954006 161.216989,49.6165273 161.216989,47.8090156 L161.216989,13.1141799 C161.216989,9.59305313 158.35314,6.75267754 154.855487,6.75267754 L13.0714496,6.75267754 C9.55032285,6.75267754 6.70994727,9.61652734 6.70994727,13.1141799 L6.70994727,112.081316 C6.70994727,115.602443 9.57379707,118.442818 13.0714496,118.442818 L108.587881,118.442818 C110.395393,118.442818 111.874266,119.921692 111.874266,121.729203 C111.874266,123.536715 110.395393,125.015588 108.587881,125.015588 Z" id="路径" stroke-width="6"></path>
            <path d="M5.77098008,30.1799076 L162.155957,30.1799076 L162.155957,38.0437574 L5.77098008,38.0437574 L5.77098008,30.1799076 Z M151.216989,129.475682 C132.155957,129.475682 116.662999,113.95925 116.662999,94.8982174 C116.662999,75.8371846 132.179431,60.3442268 151.216989,60.3442268 C170.254548,60.3442268 185.794454,75.8606588 185.794454,94.9216916 C185.794454,113.982724 170.278022,129.475682 151.216989,129.475682 Z M151.216989,66.4475133 C135.512764,66.4475133 122.766285,79.2174664 122.766285,94.8982174 C122.766285,110.602443 135.536238,123.372396 151.216989,123.372396 C166.897741,123.372396 179.691168,110.602443 179.691168,94.9216916 C179.691168,79.2174662 166.921215,66.4475133 151.216989,66.4475133 Z" id="形状" stroke-width="6" fill-rule="nonzero"></path>
            <path d="M149.691168,99.5695789 C147.695863,99.5695789 146.05267,97.9263863 146.05267,95.9310812 L146.05267,82.081316 C146.05267,80.0860109 147.695863,78.4428184 149.691168,78.4428184 C151.686473,78.4428184 153.329665,80.0860109 153.329665,82.081316 L153.329665,95.9310812 C153.329665,97.9263863 151.686473,99.5695789 149.691168,99.5695789 Z" id="路径" stroke-width="3"></path>
            <path d="M167.202905,96.7292033 C167.202905,98.7245084 165.559712,100.367701 163.564407,100.367701 L149.714642,100.367701 C147.719337,100.367701 146.076144,98.7245084 146.076144,96.7292033 C146.076144,94.7338982 147.719337,93.0907057 149.714642,93.0907057 L163.564407,93.0907057 C165.559712,93.0907057 167.202905,94.7338982 167.202905,96.7292033 Z" id="路径" stroke-width="3"></path>
        </g>
    </g>
</svg>