<?xml version="1.0" encoding="UTF-8"?>
<svg width="226px" height="174px" viewBox="0 0 226 174" version="1.1" xmlns="http://www.w3.org/2000/svg" xmlns:xlink="http://www.w3.org/1999/xlink">
    <!-- Generator: Sketch 52.4 (67378) - http://www.bohemiancoding.com/sketch -->
    <title>申请进度</title>
    <desc>Created with Sketch.</desc>
    <g id="Page-1" stroke="none" stroke-width="1" fill="none" fill-rule="evenodd">
        <g id="申请进度">
            <g id="信用卡" fill="#76CEFF" fill-rule="nonzero">
                <path d="M201.887884,13.7493606 C204.639663,13.7493606 207.255214,14.8405796 209.244123,16.8320546 C211.233032,18.8235294 212.322845,21.4424552 212.322845,24.1977835 L212.322845,135.99318 C212.322845,138.748508 211.233032,141.367434 209.244123,143.358909 C207.255214,145.350384 204.639663,146.441603 201.887884,146.441603 L23.975889,146.441603 C21.2241108,146.441603 18.6085592,145.350384 16.6196503,143.358909 C14.6307414,141.367434 13.5409281,138.748508 13.5409283,135.99318 L13.5409283,24.1977835 C13.5409283,21.4424552 14.6307414,18.8235294 16.6196503,16.8320546 C18.6085592,14.8405798 21.2241108,13.7493606 23.975889,13.7493606 L201.887884,13.7493606 Z M201.887884,0.190963274 L23.975889,0.190963274 C10.7891501,0.190963274 0.0272452604,10.9940323 0.0272452604,24.1705029 L0.0272452604,135.99318 C0.0272452604,149.196931 10.8163954,159.97272 23.975889,159.97272 L201.887884,159.97272 C215.074623,159.97272 225.836528,149.169651 225.836528,135.99318 L225.836528,24.1977835 C225.836528,10.9940325 215.047378,0.190963478 201.887884,0.190963274 Z" id="形状"></path>
                <polygon id="形状" points="9.48137432 43.5396419 217.063532 43.5396419 217.063532 57.0707587 9.48137432 57.0707587"></polygon>
            </g>
            <circle id="椭圆形" fill="#76CEFF" fill-rule="nonzero" cx="97" cy="154" r="20"></circle>
            <rect id="矩形" fill="#76CEFF" fill-rule="nonzero" x="27" y="70" width="100" height="20" rx="9"></rect>
            <text id="1" font-family="PingFangSC-Medium, PingFang SC" font-size="30" font-weight="400" fill="#FFFFFF">
                <tspan x="90" y="165">1</tspan>
            </text>
            <circle id="椭圆形" fill="#76CEFF" fill-rule="nonzero" cx="147" cy="154" r="20"></circle>
            <text id="2" font-family="PingFangSC-Medium, PingFang SC" font-size="30" font-weight="400" fill="#FFFFFF">
                <tspan x="138" y="165">2</tspan>
            </text>
            <circle id="椭圆形" fill="#76CEFF" fill-rule="nonzero" cx="200" cy="154" r="20"></circle>
            <text id="3" font-family="PingFangSC-Medium, PingFang SC" font-size="30" font-weight="400" fill="#FFFFFF">
                <tspan x="191" y="165">3</tspan>
            </text>
        </g>
    </g>
</svg>