<?xml version="1.0" encoding="UTF-8"?>
<svg width="200px" height="165px" viewBox="0 0 200 165" version="1.1" xmlns="http://www.w3.org/2000/svg" xmlns:xlink="http://www.w3.org/1999/xlink">
    <!-- Generator: Sketch 52.4 (67378) - http://www.bohemiancoding.com/sketch -->
    <title>贵金属</title>
    <desc>Created with Sketch.</desc>
    <g id="Page-1" stroke="none" stroke-width="1" fill="none" fill-rule="evenodd">
        <g id="贵金属" fill="#F5A623" fill-rule="nonzero">
            <path d="M82.5484375,103.719922 L82.6199219,103.897266 L97.4113281,144.210547 L97.1882812,145.082031 C95.809375,156.676172 88.6355469,163.660156 77.4746094,164.258203 L77.2550781,164.266016 L19.8859375,164.266016 L19.7710938,164.258203 C6.74140625,163.297266 0.090625,156.655469 0.003125,144.518359 L0,143.773438 L0.19375,143.244922 L14.65,103.89375 C17.8589844,94.6335938 22.3082031,84.765625 34.5011719,84.765625 L62.7699219,84.765625 C74.2457031,84.765625 78.4664062,94.4015625 82.5484375,103.720313 L82.5484375,103.719922 Z M70.1046875,149.875 C77.9613281,149.462891 81.1121094,147.655469 81.7980469,143.053516 L69.9511719,110.635547 C66.6484375,103.092969 64.6566406,99.1597656 59.2703125,99.1597656 L37.9921875,99.1597656 C32.9175781,99.1597656 30.3335937,101.915625 27.359375,110.501172 L27.3386719,110.559766 L15.2332031,143.380078 C15.3710938,148.313672 17.9035156,149.188672 27.1578125,149.872266 L70.1042969,149.875 L70.1046875,149.875 Z M71.065625,79.4933594 C58.0359375,78.5320313 51.3847656,71.890625 51.2976563,59.7535156 L51.2945313,59.0082031 L51.4882813,58.4800781 L65.9445313,19.1285156 C69.153125,9.86835938 73.6023438,0 85.7957031,0 L114.064063,0 C125.539844,0 129.760938,9.6359375 133.842969,18.9542969 L133.914453,19.1316406 L148.705859,59.4449219 L148.482422,60.3167969 C147.103516,71.9105469 139.930078,78.8941406 128.769141,79.4925781 L128.549219,79.5003906 L71.1804688,79.5003906 L71.065625,79.4925781 L71.065625,79.4933594 Z M78.6332031,25.7941406 L66.5285156,58.6144531 C66.6652344,63.5480469 69.1984375,64.4230469 78.4523437,65.1066406 L121.398828,65.109375 C129.255859,64.6976562 132.40625,62.8902344 133.092188,58.2882813 L121.245703,25.8695313 C117.942969,18.3277344 115.950781,14.3941406 110.564453,14.3941406 L89.2867188,14.3941406 C84.2121094,14.3941406 81.6285156,17.15 78.6539063,25.7359375 L78.6332031,25.7941406 Z M185.208594,103.897656 L200,144.210938 L199.776953,145.082422 C198.398047,156.676562 191.224219,163.660547 180.063281,164.258594 L179.84375,164.266406 L122.474609,164.266406 L122.359766,164.258594 C109.330078,163.297656 102.679297,156.655859 102.591797,144.51875 L102.588672,143.773828 L102.782422,143.245313 L117.238672,103.894141 C120.447656,94.6335938 124.896875,84.765625 137.089844,84.765625 L165.358594,84.765625 C176.834375,84.765625 181.055078,94.4015625 185.137109,103.720313 L185.208594,103.897656 Z M172.692969,149.875 C180.55,149.462891 183.700781,147.655469 184.386719,143.053516 L172.539844,110.635547 C169.237109,103.092969 167.245313,99.1597656 161.858984,99.1597656 L140.58125,99.1597656 C135.506641,99.1597656 132.922656,101.915625 129.948438,110.501172 L129.927734,110.559766 L117.822266,143.380078 C117.960156,148.313672 120.492578,149.188672 129.746875,149.872266 L172.693359,149.875 L172.692969,149.875 Z" id="形状"></path>
        </g>
    </g>
</svg>