<?xml version="1.0" encoding="UTF-8"?>
<svg width="170px" height="148px" viewBox="0 0 170 148" version="1.1" xmlns="http://www.w3.org/2000/svg" xmlns:xlink="http://www.w3.org/1999/xlink">
    <!-- Generator: Sketch 52.4 (67378) - http://www.bohemiancoding.com/sketch -->
    <title>基金</title>
    <desc>Created with Sketch.</desc>
    <g id="Page-1" stroke="none" stroke-width="1" fill="none" fill-rule="evenodd">
        <g id="基金" fill="#F6526D">
            <path d="M0.25390625,86.9726562 L0.25390625,139.023438 C0.25390625,143.066406 3.73046875,147.128906 8.359375,147.128906 C12.9882813,147.128906 16.4648438,143.652344 16.4648438,139.023438 L16.4648438,86.9726562 C14.1601563,88.125 11.25,88.7109375 8.9453125,88.7109375 C5.46875,88.7109375 2.578125,88.125 0.25390625,86.9726562 Z M45.3710938,63.8476563 L45.3710938,139.023438 C45.3710938,143.066406 48.8476562,147.128906 53.4765625,147.128906 C58.1054688,147.128906 61.5820312,143.652344 61.5820312,139.023438 L61.5820312,59.21875 L55.8007812,55.7421875 L45.3710938,63.8476563 Z M90.46875,75.9960938 L90.46875,139.609375 C90.46875,143.652344 93.9453125,147.714844 98.5742188,147.714844 C103.203125,147.714844 106.679688,144.238281 106.679688,139.609375 L106.679688,75.9960938 C104.375,77.1484375 101.484375,77.734375 98.5742188,77.734375 C95.6835938,77.1484375 92.7929688,77.1484375 90.46875,75.9960938 Z M135.585938,139.609375 C135.585938,143.652344 139.0625,147.714844 143.691406,147.714844 C148.320313,147.714844 151.796875,144.238281 151.796875,139.609375 L151.796875,44.1796875 L136.191406,55.1757813 L136.191406,139.609375 L135.585938,139.609375 Z" id="形状" fill-rule="nonzero"></path>
            <path d="M167.96875,8.90625 C167.96875,4.86328125 164.492188,1.38671875 160.449219,1.38671875 L125.742187,0.234375 C121.113281,-0.3515625 117.636719,3.7109375 117.636719,7.75390625 C117.636719,11.796875 121.113281,15.859375 125.15625,15.859375 L141.347656,16.4453125 L97.9882812,47.65625 L57.5195312,23.9453125 C56.3671875,23.359375 55.2148437,22.7929688 53.4765625,22.7929688 C51.7382812,22.7929688 50,23.3789063 48.28125,24.53125 L3.14453125,62.109375 C-0.33203125,65 -0.8984375,69.6289062 1.9921875,73.1054687 C3.73046875,74.84375 6.03515625,75.9960937 7.7734375,75.9960937 C9.51171875,75.9960937 11.25,75.4101562 12.96875,74.2578125 L54.0234375,40.1367187 L94.53125,63.2617187 C95.6835938,63.8476562 96.8359375,64.4140625 98.5742188,64.4140625 C100.3125,64.4140625 102.050781,63.828125 103.203125,62.6757812 L153.515625,26.8359375 L154.101562,43.6132812 C154.101562,47.65625 157.578125,51.1328125 161.621094,51.1328125 C165.664062,51.1328125 169.140625,47.65625 169.140625,43.0273438 L167.96875,8.90625 Z" id="路径"></path>
        </g>
    </g>
</svg>