<?xml version="1.0" encoding="UTF-8"?>
<svg width="243px" height="174px" viewBox="0 0 243 174" version="1.1" xmlns="http://www.w3.org/2000/svg" xmlns:xlink="http://www.w3.org/1999/xlink">
    <!-- Generator: Sketch 52.4 (67378) - http://www.bohemiancoding.com/sketch -->
    <title>卡片启用</title>
    <desc>Created with Sketch.</desc>
    <g id="Page-1" stroke="none" stroke-width="1" fill="none" fill-rule="evenodd">
        <g id="卡片启用">
            <g id="信用卡" fill="#75E28B" fill-rule="nonzero">
                <path d="M201.887884,13.7493606 C204.639663,13.7493606 207.255214,14.8405796 209.244123,16.8320546 C211.233032,18.8235294 212.322845,21.4424552 212.322845,24.1977835 L212.322845,135.99318 C212.322845,138.748508 211.233032,141.367434 209.244123,143.358909 C207.255214,145.350384 204.639663,146.441603 201.887884,146.441603 L23.975889,146.441603 C21.2241108,146.441603 18.6085592,145.350384 16.6196503,143.358909 C14.6307414,141.367434 13.5409281,138.748508 13.5409283,135.99318 L13.5409283,24.1977835 C13.5409283,21.4424552 14.6307414,18.8235294 16.6196503,16.8320546 C18.6085592,14.8405798 21.2241108,13.7493606 23.975889,13.7493606 L201.887884,13.7493606 Z M201.887884,0.190963274 L23.975889,0.190963274 C10.7891501,0.190963274 0.0272452604,10.9940323 0.0272452604,24.1705029 L0.0272452604,135.99318 C0.0272452604,149.196931 10.8163954,159.97272 23.975889,159.97272 L201.887884,159.97272 C215.074623,159.97272 225.836528,149.169651 225.836528,135.99318 L225.836528,24.1977835 C225.836528,10.9940325 215.047378,0.190963478 201.887884,0.190963274 Z" id="形状"></path>
                <polygon id="形状" points="9.48137432 43.5396419 217.063532 43.5396419 217.063532 57.0707587 9.48137432 57.0707587"></polygon>
            </g>
            <rect id="矩形" fill="#75E28B" fill-rule="nonzero" x="27" y="70" width="100" height="20" rx="9"></rect>
            <circle id="椭圆形" fill="#75E28B" fill-rule="nonzero" cx="213" cy="144" r="30"></circle>
            <g id="对勾" transform="translate(196.000000, 133.000000)" fill="#FFFFFF">
                <path d="M33.2888462,4.06174487 L14.6696934,22.3031648 C14.2301674,22.7336684 13.6230703,23 12.9524043,23 C12.2817929,23 11.6746413,22.7337218 11.2352243,22.3031648 L0.71137196,11.9927831 C0.271791331,11.5622795 0,10.9673901 0,10.3103817 C0,8.99620445 1.08727448,7.93103819 2.42855194,7.93103819 C3.09921792,7.93103819 3.70631499,8.19731638 4.14584107,8.62798036 L12.9524044,17.2558003 L29.8542681,0.696942164 C30.293685,0.266278191 30.9008912,0 31.5714481,0 C32.9127255,0 34,1.06516626 34,2.37934352 C34.0000545,3.03624502 33.7283177,3.63124128 33.2888462,4.06174487 Z" id="路径"></path>
            </g>
        </g>
    </g>
</svg>