<?xml version="1.0" encoding="UTF-8"?>
<svg width="201px" height="200px" viewBox="0 0 201 200" version="1.1" xmlns="http://www.w3.org/2000/svg" xmlns:xlink="http://www.w3.org/1999/xlink">
    <!-- Generator: Sketch 52.4 (67378) - http://www.bohemiancoding.com/sketch -->
    <title>外汇</title>
    <desc>Created with Sketch.</desc>
    <g id="Page-1" stroke="none" stroke-width="1" fill="none" fill-rule="evenodd">
        <g id="外汇" fill="#76CEFF" fill-rule="nonzero">
            <path d="M100.177671,0.00588125 C44.9580035,0.00588125 0.189433203,44.7744516 0.189433203,99.9941187 C0.189433203,155.213786 44.9580035,199.982356 100.177671,199.982356 C155.403219,199.982356 200.165908,155.213786 200.165908,99.9941187 C200.165908,44.7744516 155.403219,0.00588144531 100.177671,0.00588125 Z M100.177671,183.555843 C54.0269914,183.555843 16.6159463,146.144798 16.6159463,99.9941188 C16.6159463,53.8434395 54.0269914,16.4323943 100.177671,16.4323943 C146.32835,16.4323943 183.739395,53.8434395 183.739395,99.9941187 C183.739395,146.144798 146.32835,183.555843 100.177671,183.555843 Z M132.001466,69.2701287 C133.208158,72.8820833 131.258307,76.788368 127.646353,77.9950597 C124.034398,79.2017514 120.128113,77.2519005 118.921422,73.6399459 C117.280535,68.7408105 111.393338,63.0241723 100.177671,63.0241723 C90.8910742,63.0241723 85.3861633,69.2642475 84.7451,75.4278656 C83.9570037,83.0147621 90.4146877,89.1842615 101.589186,91.5191438 C123.944065,96.1947893 130.501731,111.145092 129.325468,122.531318 C128.096273,134.440981 118.980235,143.851085 107.070572,146.521202 L107.070572,155.160854 C107.070572,158.969322 103.983198,162.056696 100.17473,162.056696 C96.3662617,162.056696 93.2788881,158.969322 93.2788881,155.160854 L93.2788881,146.762336 C79.0755123,144.474504 71.0357545,135.293772 68.3538748,127.271658 C67.7714887,125.537229 67.9038072,123.642275 68.7215854,122.005615 C69.5393636,120.368955 70.9752649,119.125353 72.7119293,118.549668 C74.4455899,117.96702 76.3398816,118.098522 77.9764056,118.915129 C79.6129296,119.731736 80.8570306,121.166256 81.4339195,122.901841 C83.0748064,127.800976 88.9620027,133.517614 100.177671,133.517614 C109.464267,133.517614 114.969178,127.271658 115.610241,121.10804 C116.398338,113.521143 109.940654,107.357525 98.7661551,105.022643 C76.4112766,100.341116 69.8536102,85.3908133 71.0298732,74.0104688 C72.2590682,62.1008057 81.3751064,52.6907016 93.2847693,50.0205846 L93.2847693,41.3809328 C93.2847693,37.5724645 96.3721429,34.4850909 100.180611,34.4850909 C103.98908,34.4850909 107.076453,37.5724645 107.076453,41.3809328 L107.076453,49.7794508 C121.279829,52.061401 129.319587,61.2480152 132.001466,69.2701287 Z" id="形状"></path>
        </g>
    </g>
</svg>