<?xml version="1.0" encoding="UTF-8"?>
<svg width="175px" height="181px" viewBox="0 0 175 181" version="1.1" xmlns="http://www.w3.org/2000/svg" xmlns:xlink="http://www.w3.org/1999/xlink">
    <!-- Generator: Sketch 52.4 (67378) - http://www.bohemiancoding.com/sketch -->
    <title>证券</title>
    <desc>Created with Sketch.</desc>
    <g id="Page-1" stroke="none" stroke-width="1" fill="none" fill-rule="evenodd">
        <g id="证券" fill="#F6526D">
            <path d="M83.462625,95.2319375 L34.531625,95.2319375 C31.232625,95.2319375 27.933625,97.9799375 27.933625,101.830938 C27.933625,105.680938 30.682625,108.429938 34.531625,108.429938 L82.913625,108.429938 C86.213625,108.429938 89.512625,105.680938 89.512625,101.830938 C89.511625,98.5309375 86.763625,95.2319375 83.462625,95.2319375 Z M99.408625,61.6949375 L34.531625,61.6949375 C31.232625,61.6949375 27.933625,64.4439375 27.933625,68.2919375 C27.933625,72.1419375 30.682625,74.8909375 34.531625,74.8909375 L99.407625,74.8909375 C102.706625,74.8909375 106.006625,72.1419375 106.006625,68.2919375 C106.005625,64.9939375 102.706625,61.6949375 99.408625,61.6949375 Z" id="形状" fill-rule="nonzero"></path>
            <path d="M168.335625,0.1169375 L6.694625,0.1169375 C2.846625,0.1169375 0.097625,2.8659375 0.097625,6.7149375 C0.097625,10.5629375 2.846625,13.3119375 6.694625,13.3119375 L11.093625,13.3119375 L11.093625,136.467938 L80.368625,136.467938 C80.368625,158.444904 80.368625,171.64057 80.368625,176.054938 C80.368625,182.676488 95.764625,182.676488 95.764625,176.054938 C95.764625,171.64057 95.764625,158.444904 95.764625,136.467938 L159.540625,136.467938 C163.389625,135.919938 163.936625,134.269938 164.487625,130.421938 L164.487625,13.3119375 L168.335625,13.3119375 C172.186625,13.3119375 174.934625,10.5629375 174.934625,6.7149375 C174.933625,2.8659375 172.185625,0.1169375 168.335625,0.1169375 Z M151.292625,121.623937 L151.292625,123.821937 L23.738625,123.821937 L23.738625,13.8619375 L151.842625,13.8619375 L151.842625,119.424937 C151.292625,119.974937 151.292625,120.523938 151.292625,121.623937 Z" id="形状" fill-rule="nonzero"></path>
            <path d="M99.408625,28.1579375 L34.531625,28.1579375 C31.232625,28.1579375 27.933625,30.9069375 27.933625,34.7549375 C27.933625,38.6039375 30.682625,41.3529375 34.531625,41.3529375 L99.407625,41.3529375 C102.706625,41.3529375 106.006625,38.6039375 106.006625,34.7549375 C106.005625,30.9069375 102.706625,28.1579375 99.408625,28.1579375 Z" id="路径"></path>
        </g>
    </g>
</svg>