<?xml version="1.0" encoding="UTF-8"?>
<svg width="294px" height="123px" viewBox="0 0 294 123" version="1.1" xmlns="http://www.w3.org/2000/svg" xmlns:xlink="http://www.w3.org/1999/xlink">
    <!-- Generator: Sketch 52.4 (67378) - http://www.bohemiancoding.com/sketch -->
    <title>Apple Pay</title>
    <desc>Created with Sketch.</desc>
    <g id="Page-1" stroke="none" stroke-width="1" fill="none" fill-rule="evenodd">
        <g id="Apple-Pay" fill="#000000" fill-rule="nonzero">
            <path d="M86.5238983,62.9263672 C86.3658905,47.9251953 99.6666718,40.7324219 100.263742,40.3691406 C92.7879608,30.1962891 81.1404999,28.8 76.9988983,28.640625 C67.0944062,27.7044922 57.6651093,34.0701172 52.6365937,34.0701172 C47.6217499,34.0701172 39.8610077,28.7777344 31.6471405,28.9126953 C20.8434296,29.0626953 10.886789,34.7599609 5.32604678,43.7640625 C-5.89367978,61.8808594 2.45514835,88.7306641 13.3903046,103.436523 C18.7358124,110.625781 25.1090546,118.711328 33.4709687,118.415625 C41.5311249,118.119922 44.5744843,113.564844 54.3147187,113.564844 C64.0615937,113.564844 66.7940155,118.415625 75.3186249,118.26543 C83.986203,118.119141 89.4801483,110.941406 94.7838593,103.726758 C100.922336,95.3761719 103.447336,87.2880859 103.599094,86.8810547 C103.404758,86.79375 86.6977265,80.8353516 86.5233124,62.9265625 L86.5238983,62.9263672 Z M70.5037812,18.9087891 C74.9434296,13.896875 77.942453,6.93398437 77.1264374,0 C70.7276093,0.240429687 62.9801483,3.959375 58.3846405,8.96484375 C54.2686249,13.4066406 50.6707733,20.4826172 51.6321015,27.290625 C58.7731171,27.8085937 66.0582733,23.9103516 70.5039765,18.9085938 L70.5037812,18.9087891 Z" id="形状"></path>
            <path d="M149,99.2087891 L159.770508,99.2087891 L159.770508,71.1121094 C161.55,71.4869141 163.610156,71.5804687 165.858203,71.5804687 C178.782422,71.5804687 192.643945,65.5865234 192.643945,48.1662109 C192.643945,41.6105469 190.20918,36.1783203 186.181836,32.7128906 C181.873633,28.8730469 175.224219,27 166.420508,27 C159.021484,27 153.308594,27.6550781 149.000391,28.4048828 L149,99.2087891 Z M159.770898,36.1787109 C161.175781,35.8976562 163.704297,35.5234375 167.075977,35.5234375 C175.785937,35.5234375 181.780078,39.9251953 181.780078,48.6353516 C181.780078,57.8134766 175.786133,62.9646484 165.858594,62.9646484 C163.329883,62.9646484 161.363086,62.8708984 159.770898,62.4027344 L159.770898,36.1789062 L159.770898,36.1787109 Z M239.377539,67.4595703 C239.377539,56.5019531 235.163086,46.4806641 219.990625,46.4806641 C213.060156,46.4806641 206.972461,48.4472656 203.319727,50.7888672 L205.567773,58.0001953 C208.845898,55.8458984 213.528516,54.4414062 218.117773,54.4414062 C228.513672,54.4414062 228.513672,62.1212891 228.513672,65.9611328 C210.812695,65.9611328 199.667773,72.3296875 199.667773,85.1607422 C199.667773,93.1214844 205.193555,100.239258 214.840039,100.239258 C221.302148,100.239258 226.359766,97.2421875 229.263086,93.2152344 L229.544141,93.2152344 L230.293164,99.2091797 L240.126953,99.2091797 C239.471875,95.8376953 239.37793,91.3417969 239.37793,86.9402344 L239.37793,67.4599609 L239.377539,67.4595703 Z M228.794922,81.7888672 C228.794922,87.7828125 223.924414,92.2783203 218.024414,92.2783203 C213.997266,92.2783203 210.438281,89.7496094 210.438281,84.0367188 C210.438281,74.8583984 220.27207,73.2662109 228.794922,73.2662109 L228.794922,81.7888672 Z M282.460156,47.6046875 L274.125,76.6380859 C273.188477,80.1033203 272.158398,83.9433594 271.408789,86.9402344 L271.127734,86.9402344 C270.378711,83.9431641 269.348242,80.0097656 268.318164,76.6380859 L258.952539,47.6046875 L247.058203,47.6046875 L264.75918,95.1820312 C265.227344,96.2121094 265.321094,96.8677734 265.321094,97.4300781 C265.321094,98.8349609 261.293945,109.324414 250.055273,113.351562 L252.864844,122.529687 C255.393555,121.967773 260.169922,120.188281 264.852734,115.880078 C271.033984,109.886133 275.342187,100.333203 281.429883,83.3814453 L293.886133,47.6046875 L282.459766,47.6050781 L282.460156,47.6046875 Z" id="形状"></path>
        </g>
    </g>
</svg>