<?xml version="1.0" encoding="UTF-8"?>
<svg width="166px" height="190px" viewBox="0 0 166 190" version="1.1" xmlns="http://www.w3.org/2000/svg" xmlns:xlink="http://www.w3.org/1999/xlink">
    <!-- Generator: Sketch 52.4 (67378) - http://www.bohemiancoding.com/sketch -->
    <title>质押贷款</title>
    <desc>Created with Sketch.</desc>
    <g id="Page-1" stroke="none" stroke-width="1" fill="none" fill-rule="evenodd">
        <g id="质押贷款" fill="#F5A623">
            <g id="账单" fill-rule="nonzero">
                <path d="M105.078125,120.078125 L35.078125,120.078125 C32.078125,120.078125 30.078125,122.078125 30.078125,125.078125 C30.078125,128.078125 32.078125,130.078125 35.078125,130.078125 L105.078125,130.078125 C108.078125,130.078125 110.078125,128.078125 110.078125,125.078125 C110.078125,122.578125 108.078125,120.078125 105.078125,120.078125 Z M120.078125,20.078125 L105.078125,20.078125 L105.078125,10.078125 L91.578125,10.078125 C87.078125,4.078125 79.078125,0.078125 70.078125,0.078125 C61.078125,0.078125 53.078125,4.078125 48.578125,10.078125 L35.078125,10.078125 L35.078125,20.078125 L20.078125,20.078125 C9.078125,20.078125 0.078125,29.078125 0.078125,40.078125 L0.078125,140.078125 C0.078125,151.078125 9.078125,160.078125 20.078125,160.078125 C90.1342596,160.078125 116.40531,160.078125 98.8912765,160.078125 C97.3358378,160.078125 95.0328211,133.830542 106.533314,124.144053 C116.31344,115.906572 140.078125,124.289762 140.078125,121.433542 C140.078125,103.354561 140.078125,76.2360883 140.078125,40.078125 C140.078125,29.078125 131.078125,20.078125 120.078125,20.078125 Z M45.078125,20.078125 L56.078125,20.078125 C56.078125,14.578125 62.078125,10.078125 70.078125,10.078125 C77.578125,10.078125 84.078125,14.578125 84.078125,20.078125 L95.078125,20.078125 L95.078125,40.078125 L45.078125,40.078125 L45.078125,20.078125 Z M96.5903122,150.078125 C79.5876039,150.078125 54.0835415,150.078125 20.078125,150.078125 C14.578125,150.078125 10.078125,145.578125 10.078125,140.078125 L10.078125,40.078125 C10.078125,34.578125 14.578125,30.078125 20.078125,30.078125 L35.078125,30.078125 L35.078125,50.078125 L105.078125,50.078125 L105.078125,30.078125 L120.078125,30.078125 C125.578125,30.078125 130.078125,34.578125 130.078125,40.078125 C130.078125,76.4244581 130.078125,103.684208 130.078125,121.857375 C130.078125,124.275871 112.408395,120.857374 105.078125,126.669995 C96.0972468,133.791485 97.0814656,150.078125 96.5903122,150.078125 Z M105.078125,95.078125 L35.078125,95.078125 C32.078125,95.078125 30.078125,97.078125 30.078125,100.078125 C30.078125,103.078125 32.078125,105.078125 35.078125,105.078125 L105.078125,105.078125 C108.078125,105.078125 110.078125,103.078125 110.078125,100.078125 C110.078125,97.578125 108.078125,95.078125 105.078125,95.078125 Z M105.078125,70.078125 L35.078125,70.078125 C32.078125,70.078125 30.078125,72.078125 30.078125,75.078125 C30.078125,78.078125 32.078125,80.078125 35.078125,80.078125 L105.078125,80.078125 C108.078125,80.078125 110.078125,78.078125 110.078125,75.078125 C110.078125,72.578125 108.078125,70.078125 105.078125,70.078125 Z" id="形状"></path>
            </g>
            <path d="M127.553991,186.131455 C108.492958,186.131455 93,170.615024 93,151.553991 C93,132.492958 108.516432,117 127.553991,117 C146.591549,117 162.131455,132.516432 162.131455,151.577465 C162.131455,170.638498 146.615024,186.131455 127.553991,186.131455 Z M127.450704,123 C111.746479,123 99,135.769953 99,151.450704 C99,167.154929 111.769953,179.924882 127.450704,179.924883 C143.131455,179.924883 155.924883,167.154929 155.924883,151.474178 C155.924883,135.769953 143.154929,123 127.450704,123 Z" id="合并形状" stroke="#F5A623" stroke-width="6" fill-rule="nonzero"></path>
            <path d="M135.647384,150.053017 C136.890043,150.053017 137.898577,149.045983 137.898577,147.801824 C137.898577,146.557664 136.890043,145.550631 135.647384,145.550631 L131.126988,145.550631 L136.078112,140.890661 C136.984593,140.038209 137.026615,138.613954 136.172663,137.707473 C135.31871,136.800993 133.895956,136.761972 132.990976,137.611423 L127.5656,142.72013 L122.138724,137.611423 C121.232243,136.761972 119.809489,136.800993 118.957037,137.707473 C118.104585,138.613954 118.146608,140.038209 119.051587,140.890661 L124.002712,145.550631 L119.251193,145.550631 C118.008535,145.550631 117,146.557664 117,147.801824 C117,149.045983 118.008535,150.053017 119.251193,150.053017 L125.356429,150.053017 L125.356429,154.298768 L119.251193,154.298768 C118.008535,154.298768 117,155.307302 117,156.549961 C117,157.79412 118.008535,158.801154 119.251193,158.801154 L125.356429,158.801154 L125.356429,164.748807 C125.356429,165.992966 126.364964,167 127.607623,167 C128.850281,167 129.858816,165.992966 129.858816,164.748807 L129.858816,158.801154 L135.645883,158.801154 C136.888542,158.801154 137.897077,157.79412 137.897077,156.549961 C137.897077,155.307302 136.888542,154.298768 135.645883,154.298768 L129.858816,154.298768 L129.858816,150.053017 L135.647384,150.053017 Z" id="路径"></path>
        </g>
    </g>
</svg>