<?xml version="1.0" encoding="UTF-8"?>
<svg width="35px" height="10px" viewBox="0 0 35 10" version="1.1" xmlns="http://www.w3.org/2000/svg" xmlns:xlink="http://www.w3.org/1999/xlink">
    <!-- Generator: Sketch 51.2 (57519) - http://www.bohemiancoding.com/sketch -->
    <title>Left Detail</title>
    <desc>Created with Sketch.</desc>
    <defs></defs>
    <g id="Symbols" stroke="none" stroke-width="1" fill="none" fill-rule="evenodd">
        <g id="Bars-/-Status-Bar-/-iPhone-8-/-On-Light" transform="translate(-6.000000, -5.000000)" fill="#000000">
            <g id="Left-Detail" transform="translate(6.000000, 5.000000)">
                <path d="M14.25,0 L15.75,0 C16.1642136,-7.6089797e-17 16.5,0.335786438 16.5,0.75 L16.5,9.25 C16.5,9.66421356 16.1642136,10 15.75,10 L14.25,10 C13.8357864,10 13.5,9.66421356 13.5,9.25 L13.5,0.75 C13.5,0.335786438 13.8357864,7.6089797e-17 14.25,0 Z M9.75,2 L11.25,2 C11.6642136,2 12,2.33578644 12,2.75 L12,9.25 C12,9.66421356 11.6642136,10 11.25,10 L9.75,10 C9.33578644,10 9,9.66421356 9,9.25 L9,2.75 C9,2.33578644 9.33578644,2 9.75,2 Z M5.25,4 L6.75,4 C7.16421356,4 7.5,4.33578644 7.5,4.75 L7.5,9.25 C7.5,9.66421356 7.16421356,10 6.75,10 L5.25,10 C4.83578644,10 4.5,9.66421356 4.5,9.25 L4.5,4.75 C4.5,4.33578644 4.83578644,4 5.25,4 Z M0.75,5.5 L2.25,5.5 C2.66421356,5.5 3,5.83578644 3,6.25 L3,9.25 C3,9.66421356 2.66421356,10 2.25,10 L0.75,10 C0.335786438,10 5.07265313e-17,9.66421356 0,9.25 L0,6.25 C-5.07265313e-17,5.83578644 0.335786438,5.5 0.75,5.5 Z" id="Signal"></path>
                <path d="M20.9908519,2.99085192 C22.7169011,1.44209802 24.9984311,0.5 27.5,0.5 C30.0015689,0.5 32.2830989,1.44209802 34.0091481,2.99085192 L33.1237701,3.87622995 C31.6251889,2.5529753 29.6563669,1.75 27.5,1.75 C25.3436331,1.75 23.3748111,2.5529753 21.8762299,3.87622995 L20.9908519,2.99085192 Z M23.3831418,5.38314182 C24.4931668,4.44532529 25.9280645,3.88000011 27.4950008,3.88000011 C29.0644872,3.88000011 30.5015048,4.4471668 31.6122766,5.38772337 L30.7300995,6.26990048 C29.8478592,5.55102715 28.7217659,5.11999989 27.4950008,5.11999989 C26.2707894,5.11999989 25.1468312,5.54923452 24.2654149,6.26541489 L23.3831418,5.38314182 Z M25.8767575,7.87675746 C26.3386883,7.56019965 26.8977163,7.375 27.5,7.375 C28.1022837,7.375 28.6613117,7.56019965 29.1232425,7.87675746 L27.5,9.5 L25.8767575,7.87675746 Z" id="Wifi" stroke="#000000" stroke-linecap="round" stroke-linejoin="round"></path>
            </g>
        </g>
    </g>
</svg>