<?xml version="1.0" encoding="UTF-8"?>
<svg width="27px" height="12px" viewBox="0 0 27 12" version="1.1" xmlns="http://www.w3.org/2000/svg" xmlns:xlink="http://www.w3.org/1999/xlink">
    <!-- Generator: Sketch 51.2 (57519) - http://www.bohemiancoding.com/sketch -->
    <title>Battery Icon</title>
    <desc>Created with Sketch.</desc>
    <defs></defs>
    <g id="Symbols" stroke="none" stroke-width="1" fill="none" fill-rule="evenodd">
        <g id="Bars-/-Status-Bar-/-iPhone-8-/-On-Light" transform="translate(-343.000000, -4.000000)">
            <g id="Right-Detail" transform="translate(296.000000, 3.000000)">
                <g id="Battery" transform="translate(11.000000, 0.000000)">
                    <g id="Battery-Icon" transform="translate(36.000000, 1.000000)">
                        <path d="M3.2048565,1 C2.26431807,1 1.89540921,1.07123959 1.5147423,1.27482248 C1.19446913,1.44610644 0.946106445,1.69446913 0.774822479,2.0147423 C0.571239588,2.39540921 0.5,2.76431807 0.5,3.7048565 L0.5,8.7951435 C0.5,9.73568193 0.571239588,10.1045908 0.774822479,10.4852577 C0.946106445,10.8055309 1.19446913,11.0538936 1.5147423,11.2251775 C1.89540921,11.4287604 2.26431807,11.5 3.2048565,11.5 L22.0738202,11.5 C22.8614775,11.5 23.5,10.8614775 23.5,10.0738202 L23.5,3.7048565 C23.5,2.76431807 23.4287604,2.39540921 23.2251775,2.0147423 C23.0538936,1.69446913 22.8055309,1.44610644 22.4852577,1.27482248 C22.1045908,1.07123959 21.7356819,1 20.7951435,1 L3.2048565,1 Z" id="Battery-Outline" stroke="#000000" opacity="0.47"></path>
                        <path d="M25,4.12802928 C25.8738943,4.43690659 26.5,5.27033588 26.5,6.25 C26.5,7.22966412 25.8738943,8.06309341 25,8.37197072 L25,4.12802928 Z" id="Battery-Connector" fill="#000000" opacity="0.58"></path>
                        <rect id="Battery-Fill" fill="#000000" x="2" y="2.5" width="20" height="7.5" rx="1"></rect>
                    </g>
                </g>
            </g>
        </g>
    </g>
</svg>