<?xml version="1.0" encoding="UTF-8"?>
<svg width="206px" height="191px" viewBox="0 0 206 191" version="1.1" xmlns="http://www.w3.org/2000/svg" xmlns:xlink="http://www.w3.org/1999/xlink">
    <!-- Generator: Sketch 52.4 (67378) - http://www.bohemiancoding.com/sketch -->
    <title>分组 3</title>
    <desc>Created with Sketch.</desc>
    <g id="Page-1" stroke="none" stroke-width="1" fill="none" fill-rule="evenodd">
        <g id="分组-3" transform="translate(0.000000, 3.000000)" fill="#6DC7B5">
            <g id="贷款余额" transform="translate(29.000000, 0.000000)" fill-rule="nonzero" stroke="#6DC7B5" stroke-width="6">
                <path d="M86.5396099,184.389928 L25.0597134,172.273089 L6.8968949,172.273089 C3.28921178,172.273089 0.35330414,169.386943 0.35330414,165.829021 L0.35330414,120.6459 C0.35330414,117.436306 2.76671975,114.699443 6.00119427,114.251592 L31.2798567,110.793193 C31.8521099,110.718551 32.4243631,110.66879 32.9966162,110.66879 C34.5640924,110.66879 36.0818073,110.942476 37.5248806,111.489849 L97.2631369,133.310111 L98.4076433,134.081409 C99.7263137,134.97711 100.87082,136.046975 101.816282,137.291003 L102.811505,138.609674 L150.980295,111.041998 L151.627189,110.892715 C153.020502,110.594148 154.413814,110.419984 155.807126,110.419984 C162.05215,110.419984 167.799562,113.604697 171.18332,118.92914 C175.363256,125.522492 174.865645,133.708201 169.939291,139.779061 L169.292396,140.575239 L92.361664,183.494228 C91.0927548,184.190884 89.6496815,184.564092 88.1817277,184.564092 C87.6343551,184.564092 87.0869825,184.514331 86.5396099,184.389928 Z M88.1319666,175.831011 L163.470342,133.882365 L163.719148,133.484275 C166.655056,128.956011 164.440685,124.776075 163.694268,123.581807 C163.047373,122.561704 160.559315,119.177946 155.906648,119.177946 C155.508559,119.177946 155.085589,119.202826 154.637739,119.252588 L154.26453,119.302349 L104.030653,148.039411 L103.806728,148.760947 C103.657444,149.258559 103.4584,149.781051 103.259355,150.278662 C101.119626,155.329419 96.4171975,158.464371 91.0181131,158.464371 C90.0726513,158.464371 89.1023089,158.364849 88.1568471,158.165804 L87.7089968,158.066282 L55.3642516,146.496815 L58.3499204,138.286226 L90.2219347,149.656648 C90.2219347,149.656648 90.8190685,149.706409 90.9683519,149.706409 C92.7846338,149.706409 94.3272293,148.636545 95.0736465,146.870024 C95.9942277,144.730295 95.3473328,142.590565 93.4066481,141.271895 L93.2076035,141.147492 L92.9339172,141.023089 L34.2904061,119.600916 C33.9171975,119.451632 33.4693471,119.37699 32.9966162,119.37699 L32.5238854,119.401871 L9.23566879,122.586584 L9.23566879,163.515127 L25.9305334,163.515127 L88.1319666,175.831011 Z M96.2430334,107.334793 C66.6600318,107.334793 42.6005175,83.2752787 42.6005175,53.6922771 C42.6005175,24.1092755 66.6600318,0.0497611465 96.2430334,0.0497611465 C125.826035,0.0497611465 149.885549,24.1092755 149.885549,53.6922771 C149.885549,83.2752787 125.801154,107.334793 96.2430334,107.334793 Z M96.2430334,5.94645701 C69.9193869,5.94645701 48.4972134,27.3686306 48.4972134,53.6922771 C48.4972134,80.0159236 69.9193869,101.438097 96.2430334,101.438097 C122.56668,101.438097 143.988854,80.0159236 143.988854,53.6922771 C143.988854,27.3686306 122.56668,5.94645701 96.2430334,5.94645701 Z" id="形状"></path>
            </g>
            <path d="M139.691203,49.9835517 C142.069659,49.9835517 144,48.0560831 144,45.6747546 C144,43.2934261 142.069659,41.3659575 139.691203,41.3659575 L131.039138,41.3659575 L140.515619,32.4467474 C142.250628,30.8151496 142.331059,28.0891172 140.696589,26.3541082 C139.062118,24.6190993 136.338959,24.5444134 134.606822,26.1702663 L124.222621,35.9483633 L113.835548,26.1702663 C112.100539,24.5444134 109.377379,24.6190993 107.745781,26.3541082 C106.114183,28.0891172 106.194614,30.8151496 107.92675,32.4467474 L117.403232,41.3659575 L108.308797,41.3659575 C105.930341,41.3659575 104,43.2934261 104,45.6747546 C104,48.0560831 105.930341,49.9835517 108.308797,49.9835517 L119.994255,49.9835517 L119.994255,58.1099431 L108.308797,58.1099431 C105.930341,58.1099431 104,60.0402843 104,62.4187403 C104,64.8000688 105.930341,66.7275374 108.308797,66.7275374 L119.994255,66.7275374 L119.994255,78.1113795 C119.994255,80.492708 121.924596,82.4201766 124.303052,82.4201766 C126.681508,82.4201766 128.611849,80.492708 128.611849,78.1113795 L128.611849,66.7275374 L139.68833,66.7275374 C142.066786,66.7275374 143.997128,64.8000688 143.997128,62.4187403 C143.997128,60.0402843 142.066786,58.1099431 139.68833,58.1099431 L128.611849,58.1099431 L128.611849,49.9835517 L139.691203,49.9835517 Z" id="路径"></path>
            <rect id="矩形" fill-rule="nonzero" x="0" y="114" width="16" height="60" rx="5"></rect>
        </g>
    </g>
</svg>