<?xml version="1.0" standalone="no"?><!DOCTYPE svg PUBLIC "-//W3C//DTD SVG 1.1//EN" "http://www.w3.org/Graphics/SVG/1.1/DTD/svg11.dtd"><svg t="1543924936611" class="icon" style="" viewBox="0 0 1024 1024" version="1.1" xmlns="http://www.w3.org/2000/svg" p-id="51090" xmlns:xlink="http://www.w3.org/1999/xlink" width="200" height="200"><defs><style type="text/css"></style></defs><path d="M391.413127 642.866409c-60.886486 36.373745-69.584556-20.559073-69.584556-20.559073l-75.910424-192.148263c-29.257143-90.934363 25.303475-41.118147 25.303475-41.118146S317.874903 426.996139 353.457915 450.718147s75.910425 7.116602 75.910425 7.116602l496.580695-248.290347C834.223938 86.980695 683.193822 6.325869 511.604633 6.325869 232.475676 6.325869 5.535135 221.405405 5.535135 486.301158 5.535135 638.912741 80.654826 774.128185 197.683398 861.899614l-21.349807 131.261776s-10.279537 37.955212 25.303475 20.559073c24.512741-11.861004 86.189961-55.351351 122.563706-82.236293 60.095753 22.140541 123.35444 34.001544 187.403861 34.001544 279.128958 0 506.069498-215.079537 506.069498-479.975289 0-76.701158-18.977606-149.448649-52.97915-213.49807-157.355985 102.795367-525.837838 342.387645-573.281854 370.854054z" fill="#24AF41" p-id="51091"></path></svg>