<?xml version="1.0" standalone="no"?><!DOCTYPE svg PUBLIC "-//W3C//DTD SVG 1.1//EN" "http://www.w3.org/Graphics/SVG/1.1/DTD/svg11.dtd"><svg t="1543923205977" class="icon" style="" viewBox="0 0 1108 1024" version="1.1" xmlns="http://www.w3.org/2000/svg" p-id="45847" xmlns:xlink="http://www.w3.org/1999/xlink" width="216.40625" height="200"><defs><style type="text/css"></style></defs><path d="M1067.795333 472.49411201L39.557075 472.49411201C17.710595 472.49411201 0 490.122808 0 511.866915c0 21.744107 17.710595 39.372803 39.557075 39.37280301l1028.258733 0c21.866955 0 39.557075-17.649171 39.557075-39.37280301C1107.352408 490.122808 1089.68276201 472.49411201 1067.795333 472.49411201zM1028.258733 669.358127c-21.866955 0-39.557075 17.587747-39.55707499 39.37280301l0 196.86401499c0 21.744107-17.710595 39.372803-39.55707501 39.372803L711.863555 944.967748c-21.866955 0-39.557075 17.60822201-39.557075 39.372803C672.326955 1006.12560699 689.996601 1023.733829 711.863555 1023.733829l237.28102699 0c65.416592 0 118.650751-53.00893801 118.65075101-118.118409l0-196.864015C1067.795333 686.966349 1050.125687 669.358127 1028.258733 669.358127zM355.93177801 944.988223L158.187351 944.988223c-21.78505601 0-39.557075-17.649171-39.557075-39.372803l0-196.864015c0-21.78505601-17.710595-39.372803-39.557075-39.37280301s-39.557075 17.587747-39.55707499 39.37280301l0 196.864015c0 65.12994601 53.234159 118.118409 118.65075099 118.118409l197.744426 0c21.826005 0 39.557075-17.60822201 39.55707501-39.37280301C395.488853 962.57596999 377.757783 944.988223 355.93177801 944.988223zM79.093676 354.37570201c21.826005 0 39.557075-17.62869701 39.557075-39.37280301L118.650751 118.118409c0-21.703157 17.751545-39.372803 39.55707499-39.37280299l197.74442601 0c21.826005 0 39.557075-17.649171 39.557075-39.37280301S377.757783 0 355.93177801 0L158.187351 0C92.77076 0 39.557075 52.988463 39.557075 118.118409l0 196.864015C39.557075 336.726531 57.26766999 354.37570201 79.093676 354.37570201zM711.863555 78.74560599l237.28102699 2e-8c21.826005 0 39.557075 17.66964601 39.55707502 39.37280299l0 196.864015c0 21.744107 17.66964601 39.372803 39.55707499 39.372803 21.866955 0 39.557075-17.62869701 39.557075-39.372803L1067.815808 118.118409c0-65.12994601-53.234159-118.118409-118.650751-118.118409L711.863555 0c-21.866955 0-39.557075 17.649171-39.557075 39.372803S689.996601 78.74560599 711.863555 78.74560599z" p-id="45848" fill="#ffffff"></path></svg>