<?xml version="1.0" encoding="UTF-8"?>
<svg width="161px" height="140px" viewBox="0 0 161 140" version="1.1" xmlns="http://www.w3.org/2000/svg" xmlns:xlink="http://www.w3.org/1999/xlink">
    <!-- Generator: Sketch 52.4 (67378) - http://www.bohemiancoding.com/sketch -->
    <title>个人住房</title>
    <desc>Created with Sketch.</desc>
    <g id="Page-1" stroke="none" stroke-width="1" fill="none" fill-rule="evenodd">
        <g id="个人住房" fill="#7091B7">
            <polygon id="路径" points="80.2734375 39.3359375 93.6067709 39.3359375 93.6067709 52.6692709 80.2734375 52.6692709"></polygon>
            <path d="M153.606771,126.002604 L146.940104,126.002604 L146.940104,72.6692709 L133.606771,72.6692709 L133.606771,24.0026041 L145.606771,26.0026041 L146.940104,26.0026041 C150.273438,26.0026041 152.940104,23.3359375 153.606771,20.6692709 C154.273438,17.3359375 151.606771,13.3359375 148.273438,13.3359375 L61.6067709,0.00260410156 L60.9401041,0.00260410156 L60.2734375,0.00260410156 L58.2734375,0.00260410156 C57.6067709,0.00260410156 57.6067709,0.669270703 56.9401041,0.669270898 C56.2734373,0.669271094 56.2734375,1.3359375 55.6067709,1.3359375 L54.9401041,2.0026041 C54.9401041,2.0026041 54.2734375,2.6692707 54.2734375,3.3359375 C54.2734375,4.0026043 53.6067709,4.0026041 53.6067709,4.6692709 L53.6067709,20.6692709 L6.2734375,26.0026041 C2.2734375,26.6692707 -0.393229102,30.0026041 0.2734375,33.3359375 C0.940104102,36.6692709 3.6067709,39.3359375 6.9401041,39.3359375 L7.6067709,39.3359375 L13.6067709,38.6692709 L13.6067709,126.002604 L6.9401041,126.002604 C2.9401041,126.002604 0.2734375,128.669271 0.2734375,132.669271 C0.2734375,136.669271 2.9401041,139.335938 6.9401041,139.335938 L153.606771,139.335938 C157.606771,139.335938 160.273437,136.669271 160.273437,132.669271 C160.273437,128.669271 157.606771,126.002604 153.606771,126.002604 Z M120.273438,72.6692709 L66.9401041,72.6692709 L66.9401041,14.0026041 L120.273438,22.0026041 L120.273438,72.6692709 Z M26.9401041,36.6692709 L53.6067709,33.3359375 L53.6067709,72.6692709 L26.9401041,72.6692709 L26.9401041,36.6692709 Z M50.2734375,99.3359375 L50.2734375,126.002604 L26.9401041,126.002604 L26.9401041,86.0026041 L93.6067709,86.0026041 L93.6067709,126.002604 L70.2734375,126.002604 L70.2734375,99.3359375 L50.2734375,99.3359375 Z M106.940104,126.002604 L106.940104,86.0026041 L133.606771,86.0026041 L133.606771,126.002604 L106.940104,126.002604 Z" id="形状" fill-rule="nonzero"></path>
            <polygon id="路径" points="36.9401041 49.3359375 43.6067709 49.3359375 43.6067709 62.6692709 36.9401041 62.6692709"></polygon>
        </g>
    </g>
</svg>