<?xml version="1.0" encoding="UTF-8"?>
<svg width="159px" height="163px" viewBox="0 0 159 163" version="1.1" xmlns="http://www.w3.org/2000/svg" xmlns:xlink="http://www.w3.org/1999/xlink">
    <!-- Generator: Sketch 52.4 (67378) - http://www.bohemiancoding.com/sketch -->
    <title>加油卡</title>
    <desc>Created with Sketch.</desc>
    <g id="Page-1" stroke="none" stroke-width="1" fill="none" fill-rule="evenodd">
        <g id="加油卡" fill="#FB6D70">
            <path d="M158.185547,36.921875 C158.182143,35.6146549 157.655278,34.3632638 156.722656,33.4472656 L137.996094,15.0703125 C136.070312,13.1796875 132.978516,13.2089844 131.089844,15.1347656 C129.201172,17.0585938 129.230469,20.1503906 131.15625,22.0390625 L143.01582,33.6796875 L132.675977,42.484375 C131.741148,43.2804865 131.40195,44.5750866 131.826294,45.727315 C132.250639,46.8795434 133.348483,47.644907 134.576367,47.6445313 L148.441406,47.6445313 L148.605664,131.49043 C148.605664,135.257812 145.539258,138.326367 141.769727,138.326367 C138,138.326367 134.933789,135.257812 134.933789,131.49043 L134.933789,59.1992188 C134.933789,56.5019531 132.748242,54.3164063 130.050977,54.3164063 L115.451367,54.3164063 L115.451367,5.90820312 C115.451367,2.671875 112.828125,0.048828125 109.591992,0.048828125 L15.4355469,0.048828125 C12.1992188,0.048828125 9.57617188,2.671875 9.57617188,5.90820312 L9.57617188,150.341797 L5.88671875,150.341797 C2.65039063,150.341797 0.02734375,152.966797 0.02734375,156.201172 C0.02734375,159.4375 2.65039063,162.060547 5.88671875,162.060547 L120.431641,162.060547 C123.667773,162.060547 126.291016,159.4375 126.291016,156.201172 C126.291016,152.966797 123.667773,150.341797 120.431641,150.341797 L115.451172,150.341797 L115.451172,64.0820312 L125.167969,64.0820312 L125.167969,131.490234 C125.167969,140.642383 132.615234,148.091797 141.769531,148.091797 C150.923828,148.091797 158.371094,140.642383 158.371094,131.480273 L158.185547,36.921875 Z M103.732422,150.171875 L21.2949219,150.171875 L21.2949219,11.7675781 L103.732422,11.7675781 L103.732422,150.171875 Z" id="形状" fill-rule="nonzero"></path>
            <path d="M83.8222656,36.9140625 L40.4349609,36.9140625 C37.1990234,36.9140625 34.5755859,34.290625 34.5755859,31.0546875 C34.5755859,27.81875 37.1990234,25.1953125 40.4349609,25.1953125 L83.8222656,25.1953125 C87.0582031,25.1953125 89.6816406,27.81875 89.6816406,31.0546875 C89.6816406,34.290625 87.0582031,36.9140625 83.8222656,36.9140625 Z" id="路径"></path>
        </g>
    </g>
</svg>