<?xml version="1.0" encoding="UTF-8"?>
<svg width="182px" height="143px" viewBox="0 0 182 143" version="1.1" xmlns="http://www.w3.org/2000/svg" xmlns:xlink="http://www.w3.org/1999/xlink">
    <!-- Generator: Sketch 52.4 (67378) - http://www.bohemiancoding.com/sketch -->
    <title>支付卡片</title>
    <desc>Created with Sketch.</desc>
    <g id="Page-1" stroke="none" stroke-width="1" fill="none" fill-rule="evenodd">
        <g id="支付卡片" transform="translate(3.000000, 2.000000)" fill="#FFFFFF" stroke="#FFFFFF">
            <path d="M117.65625,133.378906 L117.65625,32.0703125 C117.65625,29.7265625 115.761719,27.8320312 113.417969,27.8320312 C111.074219,27.8320312 109.179687,29.7265625 109.179687,32.0703125 L109.179687,133.378906 C109.179687,135.722656 111.074219,137.617188 113.417969,137.617188 C115.761719,137.617188 117.65625,135.722656 117.65625,133.378906 Z" id="路径" stroke-width="5"></path>
            <path d="M127.34375,129.140625 L46.171875,129.140625 C43.7304687,129.199219 41.1328125,126.25 41.1328125,123.945312 L41.1328125,32.0703125 C41.1328125,29.7265625 39.2382812,27.8320312 36.8945312,27.8320312 C34.5507812,27.8320312 32.65625,29.7265625 32.65625,32.0703125 L32.65625,123.945312 C32.65625,130.761719 38.8671875,137.8125 46.2890625,137.636719 L127.34375,137.636719 C129.6875,137.636719 131.582031,135.742187 131.582031,133.398437 C131.582031,131.035156 129.6875,129.140625 127.34375,129.140625 Z" id="路径" stroke-width="4"></path>
            <path d="M134.6875,32.0703125 L134.6875,123.945312 C134.726562,125.390625 134.21875,126.679687 133.261719,127.636719 C132.324219,128.59375 131.015625,129.140625 129.648438,129.140625 L125,129.140625 C122.65625,129.140625 120.761719,131.035156 120.761719,133.378906 C120.761719,135.722656 122.65625,137.617188 125,137.617188 L129.628906,137.617188 C133.261719,137.617188 136.757812,136.152344 139.296875,133.574219 C141.855469,130.976562 143.242188,127.460938 143.144531,123.828125 L143.144531,32.0703125 C143.144531,29.7265625 141.25,27.8320312 138.90625,27.8320312 C136.5625,27.8320312 134.6875,29.7265625 134.6875,32.0703125 Z M59.765625,79.921875 L59.765625,110.859375 L71.9921875,110.859375 L71.9921875,79.921875 L59.765625,79.921875 Z M80.4882812,75.6640625 L80.4882812,115.078125 C80.4882812,117.421875 78.59375,119.316406 76.25,119.316406 L55.5273438,119.316406 C53.1835938,119.316406 51.2890625,117.421875 51.2890625,115.078125 L51.2890625,75.6640625 C51.2890625,73.3203125 53.1835938,71.4257812 55.5273438,71.4257812 L76.25,71.4257812 C78.59375,71.4257812 80.4882812,73.3203125 80.4882812,75.6640625 Z" id="形状" stroke-width="5" fill-rule="nonzero"></path>
            <path d="M152.851563,27.8125 L113.417969,27.8125 C111.074219,27.8125 109.179688,29.7070312 109.179688,32.0507812 C109.179688,34.3945312 111.074219,36.2890625 113.417969,36.2890625 L152.832031,36.2890625 C155.175781,36.2890625 157.070313,34.3945312 157.070313,32.0507812 C157.089844,29.7265625 155.195313,27.8125 152.851563,27.8125 Z" id="路径" stroke-width="4"></path>
            <path d="M113.417969,27.8125 L4.43359375,27.8125 C2.08984375,27.8125 0.1953125,29.7070312 0.1953125,32.0507812 C0.1953125,34.3945312 2.08984375,36.2890625 4.43359375,36.2890625 L113.4375,36.2890625 C115.78125,36.2890625 117.675781,34.3945312 117.675781,32.0507812 C117.65625,29.7265625 115.761719,27.8125 113.417969,27.8125 Z" id="路径" stroke-width="4"></path>
            <path d="M8.671875,50.1953125 L8.671875,32.0507813 C8.671875,29.7070313 6.77734375,27.8125 4.43359375,27.8125 C2.08984375,27.8125 0.1953125,29.7070313 0.1953125,32.0507813 L0.1953125,50.46875 C0.1953125,50.6445312 0.21484375,50.8007812 0.234375,50.9765625 C1.03515625,57.7539063 6.42578125,63.1054688 13.2226562,63.90625 C13.3789062,63.9257813 13.5546875,63.9257813 13.7109375,63.9257813 L18.3398437,63.9257813 C20.6835937,63.9257813 22.578125,62.03125 22.578125,59.6875 C22.578125,57.34375 20.6835937,55.4492188 18.3398437,55.4492188 L13.984375,55.4492188 C11.2304687,55.0390625 9.08203125,52.9101563 8.671875,50.1953125 Z M167.148438,15.9375 L167.148438,50.2539062 C167.148438,52.1289062 163.886719,55.4492187 162.109375,55.4492187 L157.480469,55.4492187 C155.136719,55.4492187 153.242188,57.34375 153.242188,59.6875 C153.242188,62.03125 155.136719,63.9257812 157.480469,63.9257812 L162.109375,63.9257812 C168.613281,63.9257812 175.625,56.7773437 175.625,50.234375 L175.625,15.9375 C175.625,13.59375 173.730469,11.6992188 171.386719,11.6992188 C169.042969,11.6992188 167.148438,13.59375 167.148438,15.9375 Z" id="形状" stroke-width="5" fill-rule="nonzero"></path>
            <path d="M14.0234375,8.671875 L162.128906,8.671875 C164.042969,8.671875 167.167969,11.6601563 167.167969,13.3984375 L167.167969,18.2421875 C167.167969,20.5859375 169.0625,22.4804688 171.40625,22.4804688 C173.75,22.4804688 175.644531,20.5859375 175.644531,18.2421875 L175.644531,13.3984375 C175.644531,6.875 168.632812,0.17578125 162.128906,0.17578125 L13.6914062,0.17578125 C13.4960937,0.17578125 13.3203125,0.1953125 13.125,0.21484375 C6.40625,1.11328125 1.11328125,6.3671875 0.1953125,13.0664063 C-0.1171875,15.390625 1.50390625,17.5195313 3.828125,17.8320313 C6.15234375,18.1445313 8.28125,16.5234375 8.59375,14.1992188 C9.00390625,11.3867188 11.1914062,9.16015625 14.0234375,8.671875 Z" id="路径" stroke-width="4"></path>
        </g>
    </g>
</svg>