<?xml version="1.0" encoding="UTF-8"?>
<svg width="176px" height="176px" viewBox="0 0 176 176" version="1.1" xmlns="http://www.w3.org/2000/svg" xmlns:xlink="http://www.w3.org/1999/xlink">
    <!-- Generator: Sketch 52.4 (67378) - http://www.bohemiancoding.com/sketch -->
    <title>小额e贷</title>
    <desc>Created with Sketch.</desc>
    <g id="Page-1" stroke="none" stroke-width="1" fill="none" fill-rule="evenodd">
        <g id="小额e贷" fill="#FB6D70">
            <polygon id="路径" points="131.455143 65.7511906 142.395126 65.7511906 142.395126 76.6911732 131.455143 76.6911732"></polygon>
            <polygon id="路径" points="131.455143 98.5713385 142.395126 98.5713385 142.395126 109.511121 131.455143 109.511121"></polygon>
            <polygon id="路径" points="131.455143 131.391287 142.395126 131.391287 142.395126 142.331269 131.455143 142.331269"></polygon>
            <polygon id="路径" points="65.8150473 65.7511906 76.7550299 65.7511906 76.7550299 76.6911732 65.8150473 76.6911732"></polygon>
            <polygon id="路径" points="65.8150473 98.5713385 76.7550299 98.5713385 76.7550299 109.511121 65.8150473 109.511121"></polygon>
            <polygon id="路径" points="32.9950992 65.7511906 43.9350818 65.7511906 43.9350818 76.6911732 32.9950992 76.6911732 32.9950992 65.7511906"></polygon>
            <polygon id="路径" points="65.8150473 32.9310426 76.7550299 32.9310426 76.7550299 43.8710252 65.8150473 43.8710252 65.8150473 32.9310426"></polygon>
            <polygon id="路径" points="32.9950992 32.9310426 43.9350818 32.9310426 43.9350818 43.8710252 32.9950992 43.8710252 32.9950992 32.9310426"></polygon>
            <polygon id="路径" points="32.9950992 98.5713385 43.9350818 98.5713385 43.9350818 109.511121 32.9950992 109.511121 32.9950992 98.5713385"></polygon>
            <path d="M164.275291,32.9310426 L109.574978,32.9310426 L109.574978,11.0510773 C109.574978,5.00417715 104.682096,0.111094727 98.6349955,0.111094727 L11.114934,0.111094531 C5.06803379,0.111094531 0.174951367,5.00417695 0.174951367,11.0510771 L0.174951367,164.211235 C0.174951367,170.258335 5.06803379,175.151217 11.114934,175.151217 L98.6349953,175.151217 L164.275291,175.151217 C170.322191,175.151217 175.215274,170.258335 175.215274,164.211235 L175.215274,43.8712252 C175.215274,37.824325 170.322191,32.9310426 164.275291,32.9310426 Z M60.3449561,164.211235 L49.4049734,164.211235 L49.4049734,142.331269 L60.3449561,142.331269 L60.3449561,164.211235 Z M98.6349953,164.211235 L71.2849387,164.211235 L71.2849387,136.861178 C71.2849387,133.837828 68.8385973,131.391287 65.8150473,131.391287 L43.935082,131.391287 C40.911532,131.391287 38.4649908,133.837828 38.4649908,136.861178 L38.4649908,164.211235 L16.5850252,164.211235 C13.561675,164.211235 11.114934,161.764694 11.114934,158.741343 L11.114934,16.5209688 C11.114934,13.4976186 13.561675,11.0510773 16.5850252,11.0510773 L93.1653037,11.0510773 C96.1884541,11.0510773 98.6349953,13.4976186 98.6349953,16.5209688 L98.6349953,164.211235 Z M164.275291,158.741343 C164.275291,161.764694 161.82875,164.211235 158.8052,164.211235 L109.574978,164.211235 L109.574978,43.8712252 L158.805,43.8712252 C161.82855,43.8712252 164.275091,46.3177664 164.275091,49.3413164 L164.275091,158.741343 L164.275291,158.741343 Z" id="形状" fill-rule="nonzero"></path>
        </g>
    </g>
</svg>