<?xml version="1.0" encoding="UTF-8"?>
<svg width="217px" height="200px" viewBox="0 0 217 200" version="1.1" xmlns="http://www.w3.org/2000/svg" xmlns:xlink="http://www.w3.org/1999/xlink">
    <!-- Generator: Sketch 52.4 (67378) - http://www.bohemiancoding.com/sketch -->
    <title>扫码取款</title>
    <desc>Created with Sketch.</desc>
    <g id="Page-1" stroke="none" stroke-width="1" fill="none" fill-rule="evenodd">
        <g id="扫码取款">
            <g id="扫一扫" fill="#9F76FF" fill-rule="nonzero">
                <path d="M208.553776,92.2840063 L7.72599121,92.2840063 C3.45910059,92.2840063 0,95.7271109 0,99.9740068 C0,104.220903 3.45910059,107.664007 7.72599121,107.664007 L208.557775,107.664007 C212.828665,107.664007 216.283766,104.216904 216.283766,99.9740068 C216.279767,95.7271109 212.828664,92.2840063 208.553776,92.2840063 Z M200.831784,130.734009 C196.560894,130.734009 193.105793,134.169116 193.105793,138.42401 L193.105793,176.874013 C193.105793,181.120909 189.646692,184.564013 185.379801,184.564013 L139.035851,184.564013 C134.764961,184.564013 131.309859,188.003119 131.309859,192.254014 C131.313858,196.508908 134.764961,199.948013 139.035851,199.948013 L185.379801,199.948013 C198.156479,199.948013 208.553776,189.594705 208.553776,176.878012 L208.553776,138.428009 C208.553776,134.173115 205.102673,130.734009 200.831784,130.734009 Z M69.5179254,184.568012 L30.895967,184.568012 C26.6410732,184.568012 23.1699758,181.120909 23.1699758,176.878012 L23.1699758,138.428009 C23.1699758,134.173115 19.7108752,130.738008 15.4439846,130.738008 C11.1770939,130.738008 7.71799336,134.173115 7.71799336,138.428009 L7.71799336,176.878012 C7.71799336,189.598704 18.11529,199.948013 30.8919682,199.948013 L69.5139264,199.948013 C73.776818,199.948013 77.2399176,196.508908 77.2399176,192.258013 C77.2439166,188.003119 73.780817,184.568012 69.5179254,184.568012 Z M15.4479836,69.2140043 C19.7108752,69.2140043 23.1739748,65.7708994 23.1739748,61.5240037 L23.1739748,23.0700018 C23.1739748,18.8311039 26.6410734,15.3800012 30.899966,15.3800012 L69.5219242,15.3800012 C73.7848158,15.3800012 77.2479154,11.9328975 77.2479154,7.69000059 C77.2479154,3.44710371 73.780817,0 69.5179254,0 L30.895967,0 C18.1192891,0 7.72599121,10.3493092 7.72599121,23.0700018 L7.72599121,61.5200047 C7.72599121,65.7669006 11.1850918,69.2140043 15.4479836,69.2140043 Z M139.035851,15.3800012 L185.379801,15.3800012 C189.642693,15.3800012 193.105792,18.8311039 193.105792,23.0700018 L193.105792,61.5200047 C193.105792,65.7669006 196.556895,69.2100053 200.831784,69.2100053 C205.102673,69.2100053 208.557775,65.7669004 208.557775,61.5200047 L208.557775,23.0700018 C208.557775,10.3493092 198.160478,0 185.3838,0 L139.035851,0 C134.764961,0 131.309859,3.44710371 131.309859,7.69000059 C131.309859,11.9328975 134.764961,15.3800012 139.035851,15.3800012 Z" id="形状"></path>
            </g>
            <rect id="矩形" stroke="#9F76FF" stroke-width="4" fill="#9F76FF" fill-rule="nonzero" x="41" y="61" width="123" height="79" rx="20"></rect>
            <text id="车牌" font-family="PingFangSC-Medium, PingFang SC" font-size="40" font-weight="400" fill="#FFFFFF">
                <tspan x="63" y="113">车牌</tspan>
            </text>
        </g>
    </g>
</svg>