<?xml version="1.0" encoding="UTF-8"?>
<svg width="169px" height="169px" viewBox="0 0 169 169" version="1.1" xmlns="http://www.w3.org/2000/svg" xmlns:xlink="http://www.w3.org/1999/xlink">
    <!-- Generator: Sketch 52.4 (67378) - http://www.bohemiancoding.com/sketch -->
    <title>网络抵押贷款</title>
    <desc>Created with Sketch.</desc>
    <g id="Page-1" stroke="none" stroke-width="1" fill="none" fill-rule="evenodd">
        <g id="网络抵押贷款" fill="#75E28B" fill-rule="nonzero">
            <path d="M26.4220588,58.0691176 L1.575,84.4220588 C-0.472058789,86.4926471 -0.377941211,89.7161764 1.66911758,91.7632354 C3.73970586,93.8338236 6.75147051,94.1397059 8.82205879,92.0691176 L15.8808824,84.4220588 L15.8808824,158.186765 C15.8808824,163.998529 20.5867648,168.727941 26.4220588,168.727941 L142.351471,168.727941 C148.163235,168.727941 152.892647,163.998529 152.892647,158.186765 L152.892647,81.1985295 L159.833823,88.1397059 C161.904412,90.1867646 165.033823,90.0220588 167.104412,87.9514705 C169.151471,85.9044117 169.269118,82.6573529 167.198529,80.6102941 L114.398529,27.8102941 L88.1397059,1.575 C87.1044117,0.539705859 85.7632354,0.0220587891 84.4220588,0.0220587891 C83.0808822,0.0220587891 81.7161764,0.539705859 80.7044117,1.575 L58.0220588,26.4455883 L26.4220588,58.0691176 Z M58.0220588,26.4455883 L47.4808824,36.9867646 L36.9397059,47.5279412 L26.3985295,58.0691176 L58.0220588,26.4455883 Z M94.9161766,158.163235 L73.8338234,158.163235 L73.8338234,116.022059 L94.9161766,116.022059 L94.9161766,158.163235 Z M142.327941,152.892647 C142.327941,155.810294 139.975,158.163235 137.057353,158.163235 L105.457353,158.163235 L105.457353,110.751471 C105.457353,107.833823 103.104412,105.480882 100.186765,105.480882 L68.5632354,105.480882 C65.6455883,105.480882 63.2926471,107.833824 63.2926471,110.751471 L63.2926471,158.163235 L31.6926471,158.163235 C28.775,158.163235 26.4220588,155.810294 26.4220588,152.892647 L26.4220588,73.8573529 L84.4220588,12.7514705 L142.327941,70.6573529 L142.327941,152.892647 Z" id="形状"></path>
        </g>
    </g>
</svg>