<?xml version="1.0" encoding="UTF-8"?>
<svg width="141px" height="161px" viewBox="0 0 141 161" version="1.1" xmlns="http://www.w3.org/2000/svg" xmlns:xlink="http://www.w3.org/1999/xlink">
    <!-- Generator: Sketch 52.4 (67378) - http://www.bohemiancoding.com/sketch -->
    <title>支付明细</title>
    <desc>Created with Sketch.</desc>
    <g id="Page-1" stroke="none" stroke-width="1" fill="none" fill-rule="evenodd">
        <g id="支付明细" fill="#FB6D70" fill-rule="nonzero">
            <path d="M105.078125,120.078125 L35.078125,120.078125 C32.078125,120.078125 30.078125,122.078125 30.078125,125.078125 C30.078125,128.078125 32.078125,130.078125 35.078125,130.078125 L105.078125,130.078125 C108.078125,130.078125 110.078125,128.078125 110.078125,125.078125 C110.078125,122.578125 108.078125,120.078125 105.078125,120.078125 Z M120.078125,20.078125 L105.078125,20.078125 L105.078125,10.078125 L91.578125,10.078125 C87.078125,4.078125 79.078125,0.078125 70.078125,0.078125 C61.078125,0.078125 53.078125,4.078125 48.578125,10.078125 L35.078125,10.078125 L35.078125,20.078125 L20.078125,20.078125 C9.078125,20.078125 0.078125,29.078125 0.078125,40.078125 L0.078125,140.078125 C0.078125,151.078125 9.078125,160.078125 20.078125,160.078125 L120.078125,160.078125 C131.078125,160.078125 140.078125,151.078125 140.078125,140.078125 L140.078125,40.078125 C140.078125,29.078125 131.078125,20.078125 120.078125,20.078125 Z M45.078125,20.078125 L56.078125,20.078125 C56.078125,14.578125 62.078125,10.078125 70.078125,10.078125 C77.578125,10.078125 84.078125,14.578125 84.078125,20.078125 L95.078125,20.078125 L95.078125,40.078125 L45.078125,40.078125 L45.078125,20.078125 Z M130.078125,140.078125 C130.078125,145.578125 125.578125,150.078125 120.078125,150.078125 L20.078125,150.078125 C14.578125,150.078125 10.078125,145.578125 10.078125,140.078125 L10.078125,40.078125 C10.078125,34.578125 14.578125,30.078125 20.078125,30.078125 L35.078125,30.078125 L35.078125,50.078125 L105.078125,50.078125 L105.078125,30.078125 L120.078125,30.078125 C125.578125,30.078125 130.078125,34.578125 130.078125,40.078125 L130.078125,140.078125 Z M105.078125,95.078125 L35.078125,95.078125 C32.078125,95.078125 30.078125,97.078125 30.078125,100.078125 C30.078125,103.078125 32.078125,105.078125 35.078125,105.078125 L105.078125,105.078125 C108.078125,105.078125 110.078125,103.078125 110.078125,100.078125 C110.078125,97.578125 108.078125,95.078125 105.078125,95.078125 Z M105.078125,70.078125 L35.078125,70.078125 C32.078125,70.078125 30.078125,72.078125 30.078125,75.078125 C30.078125,78.078125 32.078125,80.078125 35.078125,80.078125 L105.078125,80.078125 C108.078125,80.078125 110.078125,78.078125 110.078125,75.078125 C110.078125,72.578125 108.078125,70.078125 105.078125,70.078125 Z" id="形状"></path>
        </g>
    </g>
</svg>