<?xml version="1.0" standalone="no"?><!DOCTYPE svg PUBLIC "-//W3C//DTD SVG 1.1//EN" "http://www.w3.org/Graphics/SVG/1.1/DTD/svg11.dtd"><svg t="1543923247407" class="icon" style="" viewBox="0 0 1024 1024" version="1.1" xmlns="http://www.w3.org/2000/svg" p-id="47981" xmlns:xlink="http://www.w3.org/1999/xlink" width="200" height="200"><defs><style type="text/css"></style></defs><path d="M917.333333 1024H106.666667c-59.733333 0-106.666667-46.933333-106.666667-106.666667V106.666667c0-59.733333 46.933333-106.666667 106.666667-106.666667h810.666666c59.733333 0 106.666667 46.933333 106.666667 106.666667v810.666666c0 59.733333-46.933333 106.666667-106.666667 106.666667zM106.666667 85.333333c-12.8 0-21.333333 8.533333-21.333334 21.333334v810.666666c0 12.8 8.533333 21.333333 21.333334 21.333334h810.666666c12.8 0 21.333333-8.533333 21.333334-21.333334V106.666667c0-12.8-8.533333-21.333333-21.333334-21.333334H106.666667z" p-id="47982" fill="#ffffff"></path><path d="M298.666667 746.666667c-23.466667 0-42.666667-19.2-42.666667-42.666667V320c0-23.466667 19.2-42.666667 42.666667-42.666667s42.666667 19.2 42.666666 42.666667v384c0 23.466667-19.2 42.666667-42.666666 42.666667zM441.6 746.666667c-23.466667 0-42.666667-19.2-42.666667-42.666667V320c0-23.466667 19.2-42.666667 42.666667-42.666667s42.666667 19.2 42.666667 42.666667v384c0 23.466667-19.2 42.666667-42.666667 42.666667zM582.4 746.666667c-23.466667 0-42.666667-19.2-42.666667-42.666667V320c0-23.466667 19.2-42.666667 42.666667-42.666667s42.666667 19.2 42.666667 42.666667v384c0 23.466667-19.2 42.666667-42.666667 42.666667zM725.333333 746.666667c-23.466667 0-42.666667-19.2-42.666666-42.666667V320c0-23.466667 19.2-42.666667 42.666666-42.666667s42.666667 19.2 42.666667 42.666667v384c0 23.466667-19.2 42.666667-42.666667 42.666667z" p-id="47983" fill="#ffffff"></path></svg>