<?xml version="1.0" encoding="UTF-8"?>
<svg width="131px" height="175px" viewBox="0 0 131 175" version="1.1" xmlns="http://www.w3.org/2000/svg" xmlns:xlink="http://www.w3.org/1999/xlink">
    <!-- Generator: Sketch 52.4 (67378) - http://www.bohemiancoding.com/sketch -->
    <title>手机充值</title>
    <desc>Created with Sketch.</desc>
    <g id="Page-1" stroke="none" stroke-width="1" fill="none" fill-rule="evenodd">
        <g id="手机充值" fill="#76CEFF" fill-rule="nonzero">
            <path d="M21.9921875,174.941406 C16.171875,174.941406 10.6640625,172.65625 6.484375,168.476562 C2.32421875,164.316406 0.01953125,158.808594 0.01953125,152.96875 L0.01953125,22.0117187 C0.01953125,16.1914062 2.3046875,10.6835938 6.484375,6.50390625 C10.6640625,2.32421875 16.1523438,0.0390625 21.9921875,0.0390625 L108.867188,0.0390625 C114.6875,0.0390625 120.195313,2.32421875 124.375,6.50390625 C128.535156,10.6835938 130.839844,16.171875 130.839844,22.0117187 L130.839844,152.988281 C130.839844,158.808594 128.554688,164.316406 124.375,168.496094 C120.214844,172.65625 114.707031,174.960937 108.867187,174.960937 L21.9921875,174.960937 L21.9921875,174.941406 Z M10.8203125,152.988281 C10.8203125,159.140625 15.8398437,164.160156 21.9921875,164.160156 L108.867188,164.160156 C111.835938,164.160156 114.628906,163.007813 116.757813,160.917969 C118.886719,158.828125 120.117188,156.015625 120.195312,152.988281 L120.195312,138.125 L10.8203125,138.125 L10.8203125,152.988281 Z M21.8359375,10.8398438 C15.7421875,10.8398438 10.6640625,15.8398438 10.5273438,22.0117188 L10.5273438,127.519531 L119.902344,127.519531 L119.902344,22.0117187 C119.902344,15.859375 114.882812,10.8398437 108.730469,10.8398437 L21.8359375,10.8398438 Z" id="形状"></path>
            <path d="M65.4296875,104.726563 C62.4609375,104.726563 60.0390625,102.304688 60.0390625,99.3359375 L60.0390625,84.0820312 L40.2929688,84.0820312 C37.3242188,84.0820312 34.9023438,81.6601562 34.9023438,78.6914062 C34.9023438,75.7226562 37.3242187,73.3007812 40.2929688,73.3007812 L40.5664062,73.3007812 L40.5664062,73.1640625 L60.0585938,73.1640625 L60.0585938,59.2382812 L40.3125,59.2382812 C37.34375,59.2382812 34.921875,56.8164062 34.921875,53.8476562 C34.921875,50.8789062 37.34375,48.4570312 40.3125,48.4570312 L49.7460938,48.4570312 L46.2304688,40.5078125 C45.078125,37.7929687 46.2890625,34.6875 48.984375,33.4570312 C49.6484375,33.1835937 50.3515625,33.0273437 51.09375,33.0273437 C53.2226562,33.0273437 55.15625,34.2773437 56.0351563,36.2109375 L61.5039063,48.5742187 L71.6015625,48.5742187 L77.03125,36.2695312 C77.8125,34.296875 79.7070312,33.0273437 81.8359375,33.0273437 C82.5976562,33.0273437 83.359375,33.1835937 84.0625,33.515625 C85.390625,34.0429687 86.40625,35.0585937 86.9335938,36.3671875 C87.4804688,37.7148437 87.4414062,39.1992187 86.8359375,40.5664062 L83.3203125,48.515625 L90.5859375,48.515625 C93.5546875,48.515625 95.9765625,50.9375 95.9765625,53.90625 C95.9765625,56.875 93.5546875,59.296875 90.5859375,59.296875 L70.8203125,59.296875 L70.8203125,73.2226562 L90.5664063,73.2226562 C93.5351563,73.2226562 95.9570313,75.6445312 95.9570313,78.6132812 C95.9570313,81.5820312 93.5351563,84.0039062 90.5664063,84.0039062 L70.8203125,84.0039062 L70.8203125,99.3554688 C70.8203125,102.324219 68.3984375,104.726563 65.4296875,104.726563 Z M65.4296875,156.757812 C64.4140625,156.757812 63.3984375,156.484375 62.5195313,155.976562 C60.7226563,154.941406 59.609375,153.007812 59.609375,150.917969 C59.5898438,148.847656 60.703125,146.914062 62.5195313,145.859375 C63.3984375,145.351562 64.4140625,145.078125 65.4296875,145.078125 C66.4453125,145.078125 67.4609375,145.351562 68.3398438,145.859375 C70.1367188,146.894531 71.25,148.828125 71.25,150.917969 C71.25,152.988281 70.1367187,154.921875 68.3398438,155.976562 C67.4609375,156.484375 66.4648438,156.757812 65.4296875,156.757812 Z" id="形状"></path>
        </g>
    </g>
</svg>