<?xml version="1.0" encoding="UTF-8"?>
<svg width="200px" height="195px" viewBox="0 0 200 195" version="1.1" xmlns="http://www.w3.org/2000/svg" xmlns:xlink="http://www.w3.org/1999/xlink">
    <!-- Generator: Sketch 52.4 (67378) - http://www.bohemiancoding.com/sketch -->
    <title>分组</title>
    <desc>Created with Sketch.</desc>
    <g id="Page-1" stroke="none" stroke-width="1" fill="none" fill-rule="evenodd">
        <g id="分组" fill="#F97F7E" fill-rule="nonzero">
            <g id="zhanghao-(1)">
                <path d="M145.503731,54.5646766 C145.503731,24.738806 120.789801,0 90.9514925,0 C61.1131841,0 36.3868159,24.7263682 36.3868159,54.5522388 C36.3868159,73.4701493 45.85199,90.199005 60.4042289,99.6517413 C24.1187511,112.573415 -0.0782855601,146.967596 0.0186567164,185.485075 C0.0186567164,189.863184 2.92910448,192.773632 7.29477612,192.773632 C11.6728856,192.773632 14.5708955,189.863184 14.5708955,185.485075 C14.5708955,143.294366 48.7732222,109.09204 90.9639303,109.09204 C112.816748,109.09204 140.25693,124.341993 146.450579,132.976454 C152.649396,141.247495 164.503671,137.444692 162.794011,130.069502 C161.747084,126.077837 137.910586,105.808111 121.511194,99.6641791 C136.050995,90.2114428 145.503731,73.4701493 145.503731,54.5646766 Z M50.9390547,54.5522388 C50.9390547,32.7363184 69.1355721,14.539801 90.9514925,14.539801 C112.767413,14.539801 130.951493,32.7363184 130.951493,54.5522388 C130.951493,76.380597 112.767413,94.5646766 90.9514925,94.5646766 C69.1355721,94.5646766 50.9390547,76.380597 50.9390547,54.5522388 Z" id="形状"></path>
            </g>
            <g id="银行卡" transform="translate(126.368159, 142.288557)" stroke="#F97F7E" stroke-width="3">
                <path d="M71.641791,3.80387518 C71.641791,1.70890065 69.9761194,0 67.9283582,0 L3.71343284,0 C1.66567164,4.41295895e-17 0,1.69992223 0,3.80387518 L0,17.7593984 L4.23283582,17.7593984 L4.23283582,3.80387518 C4.23283582,4.51018086 4.38805968,3.80387518 3.71343284,3.80387518 L67.9283582,3.80387518 C67.2477612,3.80387518 67.4208955,4.51317371 67.4208955,3.80387518 L67.4208955,12.6865672 L71.641791,12.6865672 L71.641791,3.80387518 Z M68.6567164,46.5742765 L2.98507462,46.5742765 C3.68059703,46.5742765 4.23880599,47.1548838 4.23880599,47.885132 L4.23880599,16.3946721 L67.4029851,16.3946721 L67.4029851,47.885132 C67.3896472,47.1766295 67.9501101,46.5906301 68.6567164,46.5742765 Z M71.641791,12.6865672 L0,12.6865672 L0,46.9423935 C0,49.037368 1.66567164,50.7462687 3.71343284,50.7462687 L67.9283582,50.7462687 C69.9761194,50.7462687 71.641791,49.0463465 71.641791,46.9423935 L71.641791,12.6835744 L71.641791,12.6865672 Z M23.9492537,28.7759715 C25.3134328,28.7759715 25.9641791,28.1774073 25.9641791,26.7737745 C25.9641791,25.3731343 25.3134328,24.7745702 23.9492537,24.7745702 L13.5880597,24.7745702 C12.2238806,24.7745702 11.2746269,25.3731343 11.2746269,26.7737745 C11.2746269,28.1774074 12.2238806,28.7759715 13.5880597,28.7759715 L23.9492537,28.7759715 Z" id="形状"></path>
            </g>
        </g>
    </g>
</svg>