<?xml version="1.0" encoding="UTF-8"?>
<svg width="206px" height="179px" viewBox="0 0 206 179" version="1.1" xmlns="http://www.w3.org/2000/svg" xmlns:xlink="http://www.w3.org/1999/xlink">
    <!-- Generator: Sketch 52.4 (67378) - http://www.bohemiancoding.com/sketch -->
    <title>存款账户</title>
    <desc>Created with Sketch.</desc>
    <g id="Page-1" stroke="none" stroke-width="1" fill="none" fill-rule="evenodd">
        <g id="存款账户" transform="translate(3.000000, 3.000000)" fill="#F97F7E">
            <path d="M108.187406,8.5403572 C153.849169,8.5403572 190.997794,41.2407513 190.997794,81.4348982 C190.997794,101.693444 181.279926,121.213427 164.337896,134.989183 C161.590267,137.222496 160.532635,140.935709 161.691142,144.281604 C162.054807,145.330477 162.238746,146.397603 162.238746,147.452092 L162.238746,149.436104 C162.232556,154.795916 157.889114,159.139358 152.529303,159.145548 L150.263064,159.145548 C146.945832,159.145792 143.85964,157.446903 142.085508,154.64396 C140.09855,151.537228 136.322437,150.083215 132.765004,151.055047 C125.691082,152.989915 118.266131,154.071082 110.693748,154.270466 C107.648244,154.350536 104.883238,156.068598 103.462564,158.763629 C101.789398,161.959767 98.4798004,163.962404 94.8721994,163.961656 L92.7463719,163.961656 C89.3357807,163.961656 86.2326903,162.203706 84.4494665,159.259281 C83.195302,157.188571 81.110826,155.757584 78.7277447,155.331333 C76.3446633,154.905082 73.8933903,155.524781 71.9991941,157.032357 C70.2900266,158.404164 68.1629307,159.149861 65.9713357,159.145548 L63.8455082,159.145548 C58.4856969,159.139357 54.142255,154.795916 54.136065,149.436104 L54.136065,147.452092 C54.136065,146.397603 54.3200039,145.330477 54.6836692,144.281604 C55.8424014,140.935286 54.7847811,137.221552 52.0369156,134.987779 C44.9433353,129.221085 39.0853747,122.456068 34.6259109,114.880876 C32.855202,111.874579 29.4148526,110.270534 25.9737648,110.846859 C25.3835901,110.946008 24.786178,110.995793 24.1877328,110.995695 C19.3196721,110.995695 15.0399349,107.726919 13.780445,103.045606 L8.80707595,84.5576461 C8.06455083,81.8247609 8.44788161,78.9083115 9.87139381,76.4601248 C11.7918559,73.117873 15.3611219,71.0664166 19.2157676,71.0893915 L19.4235765,71.0893915 C23.2444156,71.0890535 26.5866208,68.5174169 27.5660292,64.824238 C30.4023381,54.1277031 36.0679351,43.9717516 43.949223,35.4529965 C45.4981672,33.7774158 46.3015847,31.5454264 46.1758903,29.2670498 C46.0501959,26.9886732 45.0061308,24.8586064 43.2822693,23.3635811 C42.9749762,23.0999403 42.6771174,22.8254982 42.3892531,22.5407708 C39.2075325,19.3716871 38.0744131,15.8473628 38.0744131,13.607802 C38.0744131,12.7400601 38.2344821,11.5479678 38.9927031,10.7911509 C39.7621572,10.024505 40.9781192,9.86303211 41.8627107,9.86303191 C44.7509717,9.86303191 48.2036863,11.5156732 50.8729056,14.1750637 C51.6900995,14.9894494 52.4328755,15.9077396 53.0815759,16.903256 C55.490847,20.6090465 60.3553811,21.8211947 64.2218107,19.6791878 C77.3909892,12.39184 92.5947277,8.5403572 108.187406,8.5403572 Z M108.187406,0.115677472 C90.553147,0.115677472 74.0969393,4.5877783 60.1414574,12.3089972 C59.1806557,10.8289831 58.0666674,9.45426399 56.8179213,8.2075824 C52.3696904,3.77620083 46.8178265,1.4397563 41.8613066,1.43835218 C38.4577359,1.43835218 35.334988,2.54058108 33.0434752,4.82366935 C27.4171933,10.4302936 28.936444,21.0341571 36.4400253,28.5096562 C36.8710881,28.9379108 37.3133837,29.3422954 37.7627,29.7312348 C29.0417524,39.1598556 22.6811192,50.3787207 19.4221723,62.6647118 L19.2213841,62.6633077 C17.5813798,62.6633077 15.9161015,62.8570754 14.2550354,63.300775 C4.00781658,66.0387959 -2.07480216,76.5345427 0.67164354,86.7452546 L5.64360871,105.233214 C7.94354633,113.784264 15.7054845,119.420375 24.1863287,119.420375 C25.2380096,119.420375 26.3009233,119.33332 27.3652412,119.154997 C32.3315899,127.589506 38.8944152,135.160484 46.7209427,141.523926 C46.05498,143.429101 45.7132531,145.432475 45.7099811,147.450688 L45.7099811,149.4347 C45.7099811,159.448836 53.8285642,167.568823 63.8441041,167.568823 L65.9699316,167.568823 C70.2342236,167.568823 74.1460833,166.087483 77.2421531,163.623265 C80.4196615,168.867628 86.163889,172.384932 92.7449677,172.384932 L94.8707952,172.384932 C101.836601,172.384932 107.877097,168.45201 110.914194,162.68953 C119.267263,162.470488 127.342319,161.269971 134.986312,159.179246 C138.207347,164.218609 143.837842,167.568823 150.263064,167.568823 L152.529303,167.568823 C162.544843,167.568823 170.663426,159.448836 170.663426,149.4347 L170.663426,147.450688 C170.663426,145.3726 170.296953,143.382972 169.652464,141.523926 C187.943848,126.652962 199.422474,105.23883 199.422474,81.4334941 C199.422474,36.5229309 158.574011,0.115677666 108.187406,0.115677472 Z" id="形状" stroke="#F97F7E" stroke-width="6" fill-rule="nonzero"></path>
            <path d="M158.24264,56.1397975 C156.703674,56.1418011 155.231649,55.510643 154.172116,54.3944846 C137.346626,36.7026572 111.572723,41.6240744 111.31577,41.6732183 C109.345826,42.0736156 107.312101,41.3906464 105.983121,39.882399 C104.654142,38.3741517 104.232581,36.2706372 104.877743,34.3667563 C105.522904,32.4628753 107.1364,31.0489739 109.108504,30.6593536 C110.410117,30.3981885 141.261294,24.5205704 162.31176,46.6507999 C163.860887,48.2780809 164.291181,50.6719904 163.405705,52.7368799 C162.520228,54.8017694 160.489379,56.1402791 158.24264,56.1397975 Z" id="路径"></path>
            <path d="M64.6893802,47.9608376 C70.0095655,47.9608376 74.3230014,52.241979 74.3230016,57.5242531 C74.3230018,62.8065273 70.0095656,67.0876687 64.6893802,67.0876687 C59.3691948,67.0876687 55.0557591,62.8065273 55.0557591,57.5242531 C55.0557591,52.241979 59.369195,47.9608376 64.6893802,47.9608376 Z" id="路径"></path>
        </g>
    </g>
</svg>