<?xml version="1.0" encoding="UTF-8"?>
<svg width="200px" height="145px" viewBox="0 0 200 145" version="1.1" xmlns="http://www.w3.org/2000/svg" xmlns:xlink="http://www.w3.org/1999/xlink">
    <!-- Generator: Sketch 52.4 (67378) - http://www.bohemiancoding.com/sketch -->
    <title>分组 5</title>
    <desc>Created with Sketch.</desc>
    <g id="Page-1" stroke="none" stroke-width="1" fill="none" fill-rule="evenodd">
        <g id="分组-5">
            <g id="信用卡" fill="#ED6D5C" fill-rule="nonzero">
                <path d="M172.40868,11.6869565 C174.75865,11.6869565 176.992285,12.6144927 178.690778,14.3072464 C180.389271,16 181.319952,18.226087 181.319952,20.568116 L181.319952,115.594203 C181.319952,117.936232 180.389271,120.162319 178.690778,121.855073 C176.992285,123.547826 174.75865,124.475362 172.40868,124.475362 L20.4749849,124.475362 C18.125015,124.475362 15.8913802,123.547826 14.1928872,121.855073 C12.4943942,120.162319 11.563713,117.936232 11.5637131,115.594203 L11.5637131,20.568116 C11.5637131,18.226087 12.4943942,16 14.1928872,14.3072464 C15.8913802,12.6144929 18.125015,11.6869565 20.4749849,11.6869565 L172.40868,11.6869565 Z M172.40868,0.162318783 L20.4749849,0.162318783 C9.21374322,0.162318783 0.0232669702,9.34492748 0.0232669702,20.5449275 L0.0232669702,115.594203 C0.0232669702,126.817391 9.23701019,135.976812 20.4749849,135.976812 L172.40868,135.976812 C183.669922,135.976812 192.860398,126.794203 192.860398,115.594203 L192.860398,20.568116 C192.860398,9.34492765 183.646655,0.162318957 172.40868,0.162318783 Z" id="形状"></path>
                <polygon id="形状" points="8.09692586 37.0086957 185.368415 37.0086957 185.368415 48.5101449 8.09692586 48.5101449"></polygon>
            </g>
            <text id="PAY" font-family="PingFangSC-Medium, PingFang SC" font-size="30" font-weight="400" fill="#ED6D5C">
                <tspan x="28" y="100">PAY</tspan>
            </text>
            <circle id="椭圆形" fill="#ED6D5C" fill-rule="nonzero" cx="174.5" cy="119.5" r="25.5"></circle>
            <g id="绑卡" transform="translate(174.622331, 119.055945) rotate(-30.000000) translate(-174.622331, -119.055945) translate(157.122331, 111.555945)" fill="#FFFFFF">
                <path d="M19.7530864,6.16013072 L19.7530864,7.39215686 C19.7530864,10.1103145 17.5385802,12.3202614 14.8186728,12.3202614 L7.40354938,12.3202614 C4.67978395,12.3202614 2.4691358,10.1103145 2.4691358,7.39215686 C2.4691358,4.6701491 4.67978395,2.46405229 7.40354938,2.46405229 L11.246142,2.46405229 C11.9290123,2.46405229 12.4807099,1.9134906 12.4807099,1.23202614 C12.4807099,0.550561683 11.9290123,0 11.246142,0 L7.40354938,0 C3.31404321,0 0,3.31107026 0,7.39215686 C0,11.4693934 3.31790123,14.7843137 7.40354938,14.7843137 L14.8186728,14.7843137 C18.904321,14.7843137 22.2222222,11.4732435 22.2222222,7.39215686 L22.2222222,6.16013072 C22.2222222,5.47866626 21.6705247,4.92810458 20.9876543,4.92810458 C20.304784,4.92810458 19.7530864,5.47866626 19.7530864,6.16013072 Z" id="路径"></path>
                <path d="M14.4349478,8.62418301 L14.4349478,7.39215686 C14.4349478,4.67399918 16.6494539,2.46405229 19.3693613,2.46405229 L26.7844848,2.46405229 C29.5082502,2.46405229 31.7188984,4.67399918 31.7188984,7.39215686 C31.7188984,10.1141646 29.5082502,12.3202614 26.7844848,12.3202614 L22.9418922,12.3202614 C22.2590218,12.3202614 21.7073243,12.8708231 21.7073243,13.5522876 C21.7073243,14.233752 22.2590218,14.7843137 22.9418922,14.7843137 L26.7844848,14.7843137 C30.873991,14.7843137 34.1880342,11.4732435 34.1880342,7.39215686 C34.1880342,3.31492034 30.870133,0 26.7844848,0 L19.3693613,0 C15.2837132,0 11.965812,3.31107026 11.965812,7.39215686 L11.965812,8.62418301 C11.965812,9.30564747 12.5175095,9.85620915 13.2003799,9.85620915 C13.8832502,9.85620915 14.4349478,9.30564747 14.4349478,8.62418301 Z" id="路径"></path>
            </g>
        </g>
    </g>
</svg>