<?xml version="1.0" encoding="UTF-8"?>
<svg width="226px" height="160px" viewBox="0 0 226 160" version="1.1" xmlns="http://www.w3.org/2000/svg" xmlns:xlink="http://www.w3.org/1999/xlink">
    <!-- Generator: Sketch 52.4 (67378) - http://www.bohemiancoding.com/sketch -->
    <title>信用卡</title>
    <desc>Created with Sketch.</desc>
    <g id="Page-1" stroke="none" stroke-width="1" fill="none" fill-rule="evenodd">
        <g id="信用卡" fill="#F5A623" fill-rule="nonzero">
            <path d="M201.887884,13.7493606 C204.639663,13.7493606 207.255214,14.8405796 209.244123,16.8320546 C211.233032,18.8235294 212.322845,21.4424552 212.322845,24.1977835 L212.322845,135.99318 C212.322845,138.748508 211.233032,141.367434 209.244123,143.358909 C207.255214,145.350384 204.639663,146.441603 201.887884,146.441603 L23.975889,146.441603 C21.2241108,146.441603 18.6085592,145.350384 16.6196503,143.358909 C14.6307414,141.367434 13.5409281,138.748508 13.5409283,135.99318 L13.5409283,24.1977835 C13.5409283,21.4424552 14.6307414,18.8235294 16.6196503,16.8320546 C18.6085592,14.8405798 21.2241108,13.7493606 23.975889,13.7493606 L201.887884,13.7493606 Z M201.887884,0.190963274 L23.975889,0.190963274 C10.7891501,0.190963274 0.0272452604,10.9940323 0.0272452604,24.1705029 L0.0272452604,135.99318 C0.0272452604,149.196931 10.8163954,159.97272 23.975889,159.97272 L201.887884,159.97272 C215.074623,159.97272 225.836528,149.169651 225.836528,135.99318 L225.836528,24.1977835 C225.836528,10.9940325 215.047378,0.190963478 201.887884,0.190963274 Z" id="形状"></path>
            <path d="M9.48137432,43.5396419 L217.063532,43.5396419 L217.063532,57.0707587 L9.48137432,57.0707587 L9.48137432,43.5396419 Z M127.126703,122.980392 C126.254852,122.980392 125.355756,122.816709 124.483906,122.434783 C121.050995,120.988917 119.44352,117.005968 120.887523,113.568628 L135.082339,79.9317989 C136.526341,76.4944587 140.504159,74.8576301 143.937071,76.3307759 C147.369982,77.7766412 148.977456,81.7595908 147.533454,85.1969309 L133.338638,118.83376 C132.248825,121.425405 129.742254,122.980392 127.126703,122.980392 Z M152.57384,122.980392 C151.701989,122.980392 150.802893,122.816709 149.931043,122.434783 C146.498131,120.988917 144.890657,117.005968 146.334659,113.568628 L160.529476,79.9317989 C161.973478,76.4944587 165.951296,74.8576301 169.384207,76.3307759 C172.817119,77.7766412 174.424593,81.7595908 172.980591,85.1969309 L158.785775,118.83376 C157.723207,121.425405 155.216637,122.980392 152.57384,122.980392 Z M178.729355,122.980392 C177.857505,122.980392 176.958409,122.816709 176.086558,122.434783 C172.653647,120.988917 171.046172,117.005968 172.490175,113.568628 L186.684991,79.9317989 C188.128993,76.4944587 192.106811,74.8576301 195.539723,76.3307759 C198.972634,77.7766412 200.580108,81.7595908 199.136106,85.1969309 L184.94129,118.83376 C183.878722,121.425405 181.372152,122.980392 178.729355,122.980392 Z" id="形状"></path>
        </g>
    </g>
</svg>