<?xml version="1.0" encoding="UTF-8"?>
<svg width="162px" height="189px" viewBox="0 0 162 189" version="1.1" xmlns="http://www.w3.org/2000/svg" xmlns:xlink="http://www.w3.org/1999/xlink">
    <!-- Generator: Sketch 52.4 (67378) - http://www.bohemiancoding.com/sketch -->
    <title>安全</title>
    <desc>Created with Sketch.</desc>
    <g id="Page-1" stroke="none" stroke-width="1" fill="none" fill-rule="evenodd">
        <g id="安全" transform="translate(1.000000, 1.000000)" fill="#5CD3C0" fill-rule="nonzero" stroke="#5CD3C0" stroke-width="2">
            <path d="M152.101731,24.5584302 L84.6413868,0.651496548 C83.3735934,0.210402632 82.0395047,-0.00984790086 80.697208,0.000334847384 L79.2832571,0.000334847384 C77.9660501,0.000334847384 76.5558201,0.186380996 75.3353572,0.651496548 L7.86757158,24.5584302 C3.26851017,26.2328457 0.0685158067,30.604931 0.0685158067,35.4421315 L0.0685158067,105.391773 C0.161538881,107.438281 2.42013953,154.969358 75.9009375,185.201862 C75.9009375,185.201862 78.1558172,185.946047 79.9418605,186.03907 L80.3213946,186.03907 C81.8246477,186.03907 86.4348719,184.178608 88.1278923,183.434423 C157.560325,153.20192 159.818926,107.341537 159.818926,105.391773 L159.818926,35.5351546 C159.911949,30.604931 156.711955,26.2328457 152.105451,24.5584302 L152.101731,24.5584302 Z M72.5000134,81.8606526 L46.4535487,81.8606526 C43.3710348,81.8606527 40.8721636,84.359524 40.8721636,87.442038 C40.8721636,90.5245519 43.3710348,93.0234232 46.4535487,93.0234233 L72.5000134,93.0234233 L72.5000134,119.069888 C72.5005695,122.152009 74.9992779,124.650266 78.0813987,124.650266 C81.1635195,124.650266 83.6622279,122.152009 83.662784,119.069888 L83.662784,93.0234233 L109.709249,93.0234233 C112.791763,93.0234232 115.290634,90.5245519 115.290634,87.442038 C115.290634,84.359524 112.791763,81.8606527 109.709249,81.8606526 L83.662784,81.8606526 L83.662784,55.8141879 C83.6622279,52.7320672 81.1635195,50.2338095 78.0813987,50.2338095 C74.9992779,50.2338095 72.5005695,52.7320672 72.5000134,55.8141879 L72.5000134,81.8606526 Z M148.618946,105.112704 C148.525923,106.880142 145.515696,147.717278 79.9381395,174.783276 C45.318667,160.457721 28.4777671,142.225195 20.4777814,129.484753 C12.2024475,116.182451 11.3540769,105.856888 11.354077,105.112704 L11.354077,35.4421315 C11.354077,35.2560854 11.4471001,35.0700392 11.6368672,34.9770162 L79.0934898,11.0700825 L80.8795332,11.0700825 L148.339877,34.9770162 C148.525923,35.0700392 148.618946,35.1630623 148.618946,35.4421315 L148.618946,105.112704 Z" id="形状"></path>
        </g>
    </g>
</svg>