<?xml version="1.0" encoding="UTF-8"?>
<svg width="156px" height="204px" viewBox="0 0 156 204" version="1.1" xmlns="http://www.w3.org/2000/svg" xmlns:xlink="http://www.w3.org/1999/xlink">
    <!-- Generator: Sketch 52.4 (67378) - http://www.bohemiancoding.com/sketch -->
    <title>生活缴费</title>
    <desc>Created with Sketch.</desc>
    <g id="Page-1" stroke="none" stroke-width="1" fill="none" fill-rule="evenodd">
        <g id="生活缴费" transform="translate(2.000000, 2.000000)" fill="#819CEE">
            <path d="M75.9657663,199.01853 C34.1567211,199.01853 0.166771357,165.551193 0.166771357,124.425565 C0.00596733668,119.01853 0.508479899,99.6818467 13.4934045,77.732098 C33.553706,43.8627513 69.9155151,3.70194724 71.4632538,2.01350503 C72.6089824,0.747173367 74.2371231,0.0235552764 75.9657663,0.0235552764 C77.674309,0.0235552764 79.3225503,0.747173367 80.4682789,2.01350503 C82.0160176,3.70194724 118.377827,43.8627513 138.438128,77.7521985 C151.423053,99.6818467 151.925565,119.01853 151.764761,124.405465 C151.744661,165.551193 117.754711,199.01853 75.9657663,199.01853 Z M75.9657663,15.2999372 C65.513505,27.2396357 39.3426508,58.013505 23.9858668,83.9431533 C12.6491834,103.078832 12.2069724,119.480842 12.3476759,124.063756 C12.3476759,158.857726 40.8903894,186.837626 75.9657663,186.837626 C111.041143,186.837626 139.583857,158.837626 139.583857,124.425565 C139.72456,119.480842 139.282349,103.078832 127.965766,83.9632538 C112.588882,58.013505 86.4180276,27.2396357 75.9657663,15.2999372 Z" id="形状" stroke="#819CEE" stroke-width="4" fill-rule="nonzero"></path>
            <path d="M69.1717965,158.99843 C67.7446608,158.99843 66.2974246,158.495917 65.151696,157.470791 C62.6190327,155.239636 62.3979271,151.40044 64.6089824,148.867776 L90.9607412,118.958229 L47.4632538,118.958229 C45.071294,118.958229 42.9004397,117.551193 41.9155151,115.380339 C40.9305905,113.189384 41.3125,110.636621 42.9004397,108.847676 L78.1768216,68.8074749 C80.4079774,66.2949121 84.2672739,66.053706 86.7798367,68.2647613 C89.2923995,70.4959171 89.553706,74.3351131 87.3225503,76.8677764 L60.950691,106.777324 L104.448178,106.777324 C106.840138,106.777324 109.010992,108.184359 109.995917,110.355214 C110.980842,112.546168 110.598932,115.098932 109.010992,116.887877 L73.7346106,156.928078 C72.5285804,158.294912 70.8602387,158.99843 69.1717965,158.99843 Z" id="路径"></path>
        </g>
    </g>
</svg>