<?xml version="1.0" encoding="UTF-8"?>
<svg width="189px" height="143px" viewBox="0 0 189 143" version="1.1" xmlns="http://www.w3.org/2000/svg" xmlns:xlink="http://www.w3.org/1999/xlink">
    <!-- Generator: Sketch 52.4 (67378) - http://www.bohemiancoding.com/sketch -->
    <title>分组 6</title>
    <desc>Created with Sketch.</desc>
    <g id="Page-1" stroke="none" stroke-width="1" fill="none" fill-rule="evenodd">
        <g id="分组-6" transform="translate(2.000000, 0.000000)" fill="#FB6D70">
            <g id="分组-4">
                <g id="e" transform="translate(32.904762, 0.919213)">
                    <path d="M42.1434152,56.4451265 C42.1434152,56.4451265 46.8364955,68.9905134 60.3859747,68.9905134 C73.9942336,68.9905134 81.4758185,56.5976562 79.5360863,45.8539807 C78.0113467,37.4071801 70.6460193,29.9298735 60.3859747,29.9298735 C42.2844741,29.9298735 30.699079,38.0110876 26.0952381,51.4759523 C25.0875856,54.423036 18.521067,55.5080702 11.2235311,54.5935186 C5.18757686,53.8370727 -0.135482738,50.7543561 0.602569632,48.1479725 C8.55935663,20.0491003 32.6169773,0.0251116071 63.7310268,0.0251116071 C101.215774,0.0251116071 122.748326,28.5418527 122.748326,53.0701265 C122.748326,77.6015625 103.695499,96.2708333 79.9161086,96.2708333 C56.1372768,96.2708333 36.0479911,78.7857143 42.1434152,56.4451265 Z" id="路径"></path>
                </g>
                <g id="银行卡" transform="translate(0.333333, 60.952381)" fill-rule="nonzero" stroke="#FB6D70" stroke-width="3">
                    <path d="M68.2302772,3.62273827 C68.2302772,1.62752443 66.6439232,0 64.6936745,0 L3.53660271,0 C1.58635394,4.20281805e-17 0,1.61897355 0,3.62273827 L0,16.9137127 L4.03127221,16.9137127 L4.03127221,3.62273827 C4.03127221,4.29541034 4.17910446,3.62273827 3.53660271,3.62273827 L64.6936745,3.62273827 C64.0454868,3.62273827 64.2103767,4.29826068 64.2103767,3.62273827 L64.2103767,12.0824449 L68.2302772,12.0824449 L68.2302772,3.62273827 Z M65.387349,44.3564538 L2.84292821,44.3564538 C3.50533051,44.3564538 4.03695808,44.9094131 4.03695808,45.6048876 L4.03695808,15.6139734 L64.1933191,15.6139734 L64.1933191,45.6048876 C64.1806163,44.9301234 64.7143906,44.3720286 65.387349,44.3564538 Z M68.2302772,12.0824449 L0,12.0824449 L0,44.7070414 C0,46.7022552 1.58635394,48.3297797 3.53660271,48.3297797 L64.6936745,48.3297797 C66.6439232,48.3297797 68.2302772,46.7108062 68.2302772,44.7070414 L68.2302772,12.0795946 L68.2302772,12.0824449 Z M22.8088131,27.4056871 C24.1080313,27.4056871 24.7277897,26.835626 24.7277896,25.4988328 C24.7277896,24.1648898 24.1080313,23.5948288 22.8088131,23.5948287 L12.9410092,23.5948287 C11.6417911,23.5948287 10.7377399,24.1648898 10.7377399,25.4988328 C10.7377399,26.8356261 11.6417911,27.4056872 12.9410092,27.4056871 L22.8088131,27.4056871 Z" id="形状"></path>
                </g>
            </g>
            <g id="分组-4" transform="translate(49.000000, 87.000000)">
                <g id="e" transform="translate(0.904762, 0.919213)">
                    <path d="M27.9031652,22.2804301 C34.5550365,27.0057351 41.9707445,27.4912775 51.9040179,28.7946429 C80.2566964,32.514881 102.983259,24.2979911 136.247396,0.268043155 C120.885045,28.0918899 101.079241,55.0107887 46.7310268,55.0107887 C32.0668035,55.0107887 15.0599943,48.4798835 1.77152186,36.0161407 C-4.35779153,30.2672342 6.86689305,30.9692283 15.8159204,28.7946429 C22.7515953,27.1092957 27.2790785,21.8370962 27.9031652,22.2804301 Z" id="路径"></path>
                </g>
            </g>
            <g id="银行卡" transform="translate(0.333333, 60.952381)" fill-rule="nonzero" stroke="#FB6D70" stroke-width="3">
                <path d="M68.2302772,3.62273827 C68.2302772,1.62752443 66.6439232,0 64.6936745,0 L3.53660271,0 C1.58635394,4.20281805e-17 0,1.61897355 0,3.62273827 L0,16.9137127 L4.03127221,16.9137127 L4.03127221,3.62273827 C4.03127221,4.29541034 4.17910446,3.62273827 3.53660271,3.62273827 L64.6936745,3.62273827 C64.0454868,3.62273827 64.2103767,4.29826068 64.2103767,3.62273827 L64.2103767,12.0824449 L68.2302772,12.0824449 L68.2302772,3.62273827 Z M65.387349,44.3564538 L2.84292821,44.3564538 C3.50533051,44.3564538 4.03695808,44.9094131 4.03695808,45.6048876 L4.03695808,15.6139734 L64.1933191,15.6139734 L64.1933191,45.6048876 C64.1806163,44.9301234 64.7143906,44.3720286 65.387349,44.3564538 Z M68.2302772,12.0824449 L0,12.0824449 L0,44.7070414 C0,46.7022552 1.58635394,48.3297797 3.53660271,48.3297797 L64.6936745,48.3297797 C66.6439232,48.3297797 68.2302772,46.7108062 68.2302772,44.7070414 L68.2302772,12.0795946 L68.2302772,12.0824449 Z M22.8088131,27.4056871 C24.1080313,27.4056871 24.7277897,26.835626 24.7277896,25.4988328 C24.7277896,24.1648898 24.1080313,23.5948288 22.8088131,23.5948287 L12.9410092,23.5948287 C11.6417911,23.5948287 10.7377399,24.1648898 10.7377399,25.4988328 C10.7377399,26.8356261 11.6417911,27.4056872 12.9410092,27.4056871 L22.8088131,27.4056871 Z" id="形状"></path>
            </g>
        </g>
    </g>
</svg>