<?xml version="1.0" encoding="UTF-8"?>
<svg width="160px" height="160px" viewBox="0 0 160 160" version="1.1" xmlns="http://www.w3.org/2000/svg" xmlns:xlink="http://www.w3.org/1999/xlink">
    <!-- Generator: Sketch 52.4 (67378) - http://www.bohemiancoding.com/sketch -->
    <title>全部</title>
    <desc>Created with Sketch.</desc>
    <g id="Page-1" stroke="none" stroke-width="1" fill="none" fill-rule="evenodd">
        <g id="全部" fill="#ADADAD" fill-rule="nonzero">
            <path d="M50.8306473,78.6545455 L21.3023558,78.6545455 C9.54641872,78.6425191 0.0193371989,69.0782223 0.00735766537,57.2763636 L0.00735766537,27.6109091 C0.0193372846,15.8090504 9.54641878,6.24475376 21.3023558,6.23272734 L50.8523805,6.23272734 C62.6111449,6.24275251 72.1410148,15.8098484 72.1510011,27.6145455 L72.1510011,57.2763636 C72.1510011,69.0581817 62.5883552,78.6581817 50.8306473,78.6581819 L50.8306473,78.6545455 Z M21.3023558,17.3236364 C15.6566178,17.3276476 11.0808403,21.9212993 11.0768447,27.5890909 L11.0768447,57.2545455 C11.0788423,62.9237572 15.6552043,67.5196231 21.3023558,67.5236364 L50.8523805,67.5236364 C56.5009466,67.5216294 61.0795148,62.9251763 61.0815139,57.2545455 L61.0815139,27.6109091 C61.0775163,21.9416984 56.4995331,17.3474599 50.8523805,17.3454545 L21.3023558,17.3454545 L21.3023558,17.3236364 Z M50.8306473,159.989091 L21.3023558,159.989091 C9.54500603,159.977061 0.0173407617,150.410551 0.00735766537,138.607273 L0.00735766537,108.92 C0.0213331567,97.1195614 9.54783111,87.5574773 21.3023558,87.5454545 L50.8523805,87.5454545 C62.6083198,87.5554732 72.1370221,97.1181432 72.1510011,108.92 L72.1510011,138.589091 C72.1370256,150.403588 62.5991755,159.977068 50.8306473,159.989091 Z M21.3023558,98.6545455 C15.6566178,98.6585567 11.0808403,103.252208 11.0768447,108.92 L11.0768447,138.589091 C11.0808403,144.256883 15.6566178,148.850534 21.3023558,148.854545 L50.8523805,148.854545 C56.4995331,148.85254 61.0775163,144.258302 61.0815139,138.589091 L61.0815139,108.92 C61.0775163,103.250789 56.4995331,98.6565509 50.8523805,98.6545455 L21.3023558,98.6545455 Z M132.511581,159.989091 L102.961556,159.989091 C91.202792,159.979066 81.6729222,150.41197 81.662936,138.607273 L81.662936,108.92 C81.6769151,97.1181433 91.2056172,87.5554733 102.961556,87.5454545 L132.511581,87.5454545 C144.266106,87.5574772 153.792604,97.1195614 153.806579,108.92 L153.806579,138.589091 C153.809462,144.262461 151.567011,149.70456 147.57264,153.717943 C143.57827,157.731327 138.159254,159.987163 132.507959,159.989091 L132.511581,159.989091 Z M102.961556,98.6545455 C97.3144039,98.6565509 92.7364207,103.250789 92.732423,108.92 L92.732423,138.589091 C92.7364207,144.258302 97.3144039,148.85254 102.961556,148.854545 L132.511581,148.854545 C138.157319,148.850534 142.733097,144.256883 142.737092,138.589091 L142.737092,108.92 C142.733097,103.252208 138.157319,98.6585567 132.511581,98.6545455 L102.961556,98.6545455 Z M117.747435,84.7890909 C112.094301,84.807425 106.667669,82.559966 102.671779,78.5454545 L81.7752246,57.5636364 C77.7743651,53.5564323 75.5351232,48.1099361 75.5558825,42.4363636 C75.5558825,36.7018181 77.7690554,31.3454545 81.7752246,27.3018181 L102.675402,6.32 C106.667013,2.3035122 112.092317,0.0555232434 117.743813,0.0763635938 C123.459668,0.0763635938 128.791567,2.30181813 132.819469,6.32363641 L153.719646,27.3018181 C157.7214,31.3099104 159.960716,36.7578958 159.938988,42.4327273 C159.938988,48.1672728 157.722193,53.5236364 153.716024,57.5672727 L132.797736,78.5236364 C128.819415,82.5515539 123.397636,84.8086455 117.747435,84.7890909 Z M117.747435,11.1890909 C115.001797,11.1890909 112.433647,12.2545455 110.510251,14.1890909 L89.6100742,35.1672727 C85.627828,39.1859906 85.627828,45.6794639 89.6100742,49.6981819 L110.510251,70.68 C112.433647,72.6109091 115.001797,73.6763636 117.747435,73.6763636 C120.493074,73.6763636 123.061224,72.6109091 124.98462,70.6763636 L145.881174,49.6981819 C149.86561,45.6981819 149.86561,39.1672728 145.881174,35.1672727 L124.98462,14.1890909 C123.068333,12.2586079 120.462184,11.1782915 117.747435,11.1890909 Z" id="形状"></path>
        </g>
    </g>
</svg>