<?xml version="1.0" standalone="no"?><!DOCTYPE svg PUBLIC "-//W3C//DTD SVG 1.1//EN" "http://www.w3.org/Graphics/SVG/1.1/DTD/svg11.dtd"><svg t="1543829758199" class="icon" style="" viewBox="0 0 1024 1024" version="1.1" xmlns="http://www.w3.org/2000/svg" p-id="1902" xmlns:xlink="http://www.w3.org/1999/xlink" width="200" height="200"><defs><style type="text/css"></style></defs><path d="M685.248 528.832c74.816-48.64 123.456-134.784 123.456-232.064C808.704 143.296 681.536 16 528 16S247.232 143.232 247.232 296.704c0 97.344 48.704 183.424 123.584 232.064a467.584 467.584 0 0 0-310.72 441.664c0 22.528 14.976 37.504 37.44 37.504 22.528 0 37.44-14.976 37.44-37.504a393.088 393.088 0 1 1 786.176 0c0 22.528 14.912 37.504 37.44 37.504 22.464 0 37.44-14.976 37.44-37.504-0.064-202.048-131.072-374.272-310.784-441.6zM322.112 296.704c0-112.256 93.632-205.888 205.888-205.888s205.824 93.632 205.824 205.888c0 112.32-93.568 205.888-205.824 205.888S322.112 409.024 322.112 296.704z m0 0" fill="#bfbfbf" p-id="1903"></path></svg>