<?xml version="1.0" standalone="no"?><!DOCTYPE svg PUBLIC "-//W3C//DTD SVG 1.1//EN" "http://www.w3.org/Graphics/SVG/1.1/DTD/svg11.dtd"><svg t="1543840017907" class="icon" style="" viewBox="0 0 1026 1024" version="1.1" xmlns="http://www.w3.org/2000/svg" p-id="6469" xmlns:xlink="http://www.w3.org/1999/xlink" width="200.390625" height="200"><defs><style type="text/css"></style></defs><path d="M511.486468 448.066237a63.935808 63.935808 0 1 0 0 127.871617 63.935808 63.935808 0 0 0 0-127.871617zM275.17972 448.066237a63.935808 63.935808 0 1 0 0 127.871617 63.935808 63.935808 0 0 0 0-127.871617zM746.770243 448.066237a63.935808 63.935808 0 1 0 63.935808 63.935809 64.447295 64.447295 0 0 0-63.935808-63.935809z" p-id="6470" fill="#ffffff"></path><path d="M511.486468 0.004092a511.486468 511.486468 0 0 0-460.337821 733.471594v157.026346a80.814862 80.814862 0 0 0 80.303375 80.303375h157.026346A511.486468 511.486468 0 1 0 511.486468 0.004092z m0 940.112127a427.0912 427.0912 0 0 1-187.204048-42.964863l-16.879053-8.183783H131.963509v-173.905399l-8.183784-16.879054A429.137146 429.137146 0 1 1 511.486468 941.139192v-1.022973z" p-id="6471" fill="#ffffff"></path></svg>