<?xml version="1.0" standalone="no"?><!DOCTYPE svg PUBLIC "-//W3C//DTD SVG 1.1//EN" "http://www.w3.org/Graphics/SVG/1.1/DTD/svg11.dtd"><svg t="1543829879597" class="icon" style="" viewBox="0 0 1024 1024" version="1.1" xmlns="http://www.w3.org/2000/svg" p-id="3164" xmlns:xlink="http://www.w3.org/1999/xlink" width="200" height="200"><defs><style type="text/css"></style></defs><path d="M743.890954 942.463125H210.04341a91.933645 91.933645 0 0 1-91.800615-91.800616v-390.288204a91.933645 91.933645 0 0 1 91.800615-91.800615h533.622417a91.933645 91.933645 0 0 1 91.800616 91.800615V850.468082a91.64712 91.64712 0 0 1-91.575489 91.995043zM210.248071 418.664428c-10.990287 0-43.091338 22.645721-41.95547 52.495503v368.522525c0 20.251189 39.315346 52.495503 52.495503 52.495503h522.877723c17.396171 0 41.709877-35.907743 41.709878-52.495503V471.159931c0-22.267098-20.834473-52.495503-41.709878-52.495503z m-10.990286 10.785626" p-id="3165" fill="#bfbfbf"></path><path d="M743.890954 950.649558H210.04341a100.099612 100.099612 0 0 1-99.987048-99.987049v-390.288204a100.099612 100.099612 0 0 1 99.987048-99.987048h533.622417a100.099612 100.099612 0 0 1 99.987049 99.987048V850.468082a99.833553 99.833553 0 0 1-99.761922 100.181476zM210.04341 376.770356a83.70628 83.70628 0 0 0-83.614182 83.614183v390.30867A83.70628 83.70628 0 0 0 210.04341 934.276692h533.847544a83.460687 83.460687 0 0 0 83.389056-83.80861V460.374305a83.70628 83.70628 0 0 0-83.614183-83.614182z m533.622417 523.594036H220.829036c-18.071551 0-60.681936-35.907743-60.681936-60.681936v-368.389495c-0.532118-14.827677 5.883999-29.962346 18.081784-42.651317 10.29444-10.703761 23.464364-18.184115 32.019187-18.184115h533.417756c25.7054 0 49.896311 34.188592 49.896311 60.681936v368.542991c0 11.788464-8.258065 27.035696-15.973778 37.371068-6.508214 8.698085-19.565575 23.310869-33.922533 23.310868zM210.248071 426.850861c-2.271735 0-11.368909 3.878323-20.384218 13.302954-5.218851 5.474677-13.906703 16.741256-13.302954 30.699125v368.829516c0 6.42635 7.316625 17.334772 18.644601 27.803174 12.453612 11.501939 23.024343 16.495663 25.674701 16.516129h522.785626c3.990886 0 12.208019-5.239317 20.803774-16.741256 8.350162-11.174481 12.719671-22.328497 12.71967-27.567814V471.159931c0-19.442779-18.798097-44.30907-33.523444-44.30907H210.248071z" p-id="3166" fill="#bfbfbf"></path><path d="M674.787225 407.878802c-19.913499 0-32.745733 5.546309-32.745733-14.326258v-96.855738c0-79.203741-85.896151-165.099892-165.099892-165.099892s-165.069193 85.885918-165.069193 165.099892v96.814806c0 19.913499-5.239317 14.326258-25.152816 14.326258s-24.927689 5.546309-24.927689-14.326258v-96.814806c0-118.805612 96.610145-215.19063 215.19063-215.19063s215.19063 96.610145 215.19063 215.19063v96.814806c0 19.913499-16.024943 14.326258-35.713315 14.326258z m-197.804693 355.086542a35.815645 35.815645 0 0 1-35.917976-35.89751V583.539193a35.938442 35.938442 0 1 1 71.876884 0v143.528641a35.815645 35.815645 0 0 1-35.938442 35.938442z m0 0" p-id="3167" fill="#bfbfbf"></path><path d="M476.972299 771.192709A44.17604 44.17604 0 0 1 432.878123 727.067834V583.539193a44.124875 44.124875 0 1 1 88.24975 0v143.528641a44.17604 44.17604 0 0 1-44.155574 44.124875z m0-215.415757A27.782708 27.782708 0 0 0 449.250989 583.539193v143.528641a27.752009 27.752009 0 1 0 55.504018 0V583.539193a27.782708 27.782708 0 0 0-27.782708-27.752008z m179.42615-139.005636c-6.364952 0-11.921493-0.961906-16.372866-5.116521-5.505376-5.198385-6.139825-12.832234-6.139825-18.112484v-96.845505c0-74.793301-82.120158-156.913459-156.913459-156.913459s-156.913459 82.120158-156.913459 156.913459v96.814806c0 8.841348-0.900508 15.175601-5.403046 19.371148-4.80953 4.492305-10.898189 4.093217-17.948755 3.60203-2.885718-0.194428-6.139825-0.419555-9.997681-0.419554s-7.111964 0.225127-9.987449 0.419554c-6.968701 0.47072-12.995963 0.890275-17.76456-3.571331-4.471839-4.175081-5.362114-10.519567-5.362114-19.442779v-96.773874c0-123.164888 100.201943-223.377064 223.377064-223.377063s223.377064 100.201943 223.377063 223.377063v96.814806c0 7.83851-2.046608 13.589479-6.272854 17.580365-6.856138 6.487748-16.812887 5.935164-27.363153 5.351881l-1.023304-0.051165-1.187033 0.071631c-2.824319 0.153496-5.525842 0.306991-8.104569 0.306992z m-386.041492-16.372867c1.401927 0 3.469001-0.13303 5.249551-0.255826 2.988048-0.204661 6.692409-0.460487 11.10285-0.460487s8.114802 0.255826 11.10285 0.450254c1.852181 0.122796 4.021585 0.276292 5.454211 0.255826a41.832674 41.832674 0 0 0 0.409321-6.89707v-96.79434c0-39.908862 20.138626-82.887636 55.258425-118.038134s78.139505-55.258424 118.048367-55.258424 82.887636 20.138626 118.038134 55.258424 55.258424 78.139505 55.258424 118.038134v96.814806c0 5.034656 1.023304 6.201223 1.023304 6.211456 0.562817 0.532118 2.650358 0.685614 5.177919 0.675381v-0.695847h18.337611v0.695847c3.724827 0 6.968701-0.184195 8.032937-1.187033 0.562817-0.532118 1.156334-2.302434 1.156334-5.689571v-96.825039c0-114.139345-92.864852-207.004197-207.004197-207.004197S269.968102 182.557461 269.968102 296.696806v96.814806a43.797418 43.797418 0 0 0 0.388855 6.89707z" p-id="3168" fill="#bfbfbf"></path></svg>