<?xml version="1.0" standalone="no"?><!DOCTYPE svg PUBLIC "-//W3C//DTD SVG 1.1//EN" "http://www.w3.org/Graphics/SVG/1.1/DTD/svg11.dtd"><svg t="1543836380720" class="icon" style="" viewBox="0 0 1024 1024" version="1.1" xmlns="http://www.w3.org/2000/svg" p-id="5533" xmlns:xlink="http://www.w3.org/1999/xlink" width="200" height="200"><defs><style type="text/css"></style></defs><path d="M512 968C260.8 968 56 763.2 56 512S260.8 56 512 56 968 260.8 968 512 763.2 968 512 968z m0-864C286.4 104 104 286.4 104 512S288 920 512 920C737.6 920 920 736 920 512 920 286.4 737.6 104 512 104z" p-id="5534" fill="#ffe500"></path><path d="M280 657.6c-8-9.6-8-25.6 3.2-33.6 9.6-8 25.6-8 33.6 3.2 49.6 57.6 120 91.2 195.2 91.2 75.2 0 147.2-33.6 195.2-91.2 8-9.6 24-11.2 33.6-3.2 9.6 8 11.2 24 3.2 33.6-57.6 68.8-142.4 107.2-232 107.2s-174.4-38.4-232-107.2zM368 457.6h-6.4c-20.8 0-38.4-25.6-38.4-38.4v-8c0-12.8 17.6-38.4 38.4-38.4h6.4c20.8 0 38.4 25.6 38.4 38.4v8c0 12.8-17.6 38.4-38.4 38.4zM662.4 457.6H656c-20.8 0-38.4-25.6-38.4-38.4v-8c0-12.8 17.6-38.4 38.4-38.4h6.4c20.8 0 38.4 25.6 38.4 38.4v8c0 12.8-17.6 38.4-38.4 38.4z" p-id="5535" fill="#ffe500"></path></svg>