<?xml version="1.0" encoding="UTF-8"?>
<svg width="200px" height="159px" viewBox="0 0 200 159" version="1.1" xmlns="http://www.w3.org/2000/svg" xmlns:xlink="http://www.w3.org/1999/xlink">
    <!-- Generator: Sketch 52.4 (67378) - http://www.bohemiancoding.com/sketch -->
    <title>投资</title>
    <desc>Created with Sketch.</desc>
    <g id="Page-1" stroke="none" stroke-width="1" fill="none" fill-rule="evenodd">
        <g id="投资" fill="#F97F7E">
            <path d="M183.67323,99.8347182 L175.696125,99.8347182 L175.696125,91.856259 L183.674585,91.856259 C183.675036,91.856259 183.675262,91.856259 183.675714,91.856259 C188.079615,91.856259 191.649205,88.2866691 191.649205,83.8827673 L191.649205,16.0842666 C191.649205,16.083815 191.649205,16.0835892 191.649205,16.0831376 C191.649205,11.6792359 188.079615,8.10964595 183.675714,8.10964595 C183.675262,8.10964595 183.67481,8.10964595 183.674585,8.10964595 L56.0553649,8.10964595 C51.65056,8.10964595 48.079841,11.6801391 48.079841,16.0851698 L48.079841,32.037798 L40.1013819,32.037798 L40.1013819,16.0851698 C40.1027366,7.27510838 47.2457551,0.13367052 56.0553649,0.132541546 L183.673456,0.132541546 C192.483743,0.132541546 199.626084,7.27465679 199.626084,16.0851698 L199.626084,83.8836705 C199.625406,92.6935061 192.483743,99.8351698 183.673456,99.8362988 L183.67323,99.8347182 Z M167.720602,142.822932 C167.720602,151.632767 160.579615,158.774431 151.76978,158.77556 L16.1745845,158.77556 C7.36429733,158.77556 0.221956286,151.633445 0.221956286,142.822932 L0.221956286,55.0851698 C0.221956286,46.2748826 7.36407153,39.1325415 16.1745845,39.1325415 L151.76978,39.1325415 C160.579164,39.1332189 167.720602,46.2753342 167.720602,55.0851698 L167.720602,142.822932 Z M9.22195629,56.8256198 L9.22195629,141.439463 C9.22195629,141.439463 9.22195629,141.439463 9.22195629,141.439463 C9.22195629,145.687652 12.7559824,149.131453 17.1160227,149.132542 L151.32789,149.132542 C155.68793,149.131888 159.221956,145.687434 159.221956,141.439463 C159.221956,141.439463 159.221956,141.439463 159.221956,141.439463 L159.221956,56.8256198 C159.221956,56.8256198 159.221956,56.8256198 159.221956,56.8256198 C159.221956,52.5774309 155.68793,49.1336303 151.32789,49.1325415 L17.1175871,49.1325415 C12.7573234,49.1331948 9.22307373,52.5774309 9.22195629,56.8256198 Z" id="形状" fill-rule="nonzero"></path>
            <path d="M101.157983,94.7192292 C103.767464,94.7192292 105.885305,92.5807044 105.885305,89.9386225 C105.885305,87.2965406 103.767464,85.1580158 101.157983,85.1580158 L91.6655204,85.1580158 L102.062477,75.2621598 C103.966012,73.4519035 104.054255,70.4273729 102.261024,68.5023819 C100.467794,66.577391 97.4801262,66.4945271 95.5797429,68.2984094 L84.1868972,79.1471997 L72.7909,68.2984094 C70.8873651,66.4945271 67.8996977,66.577391 66.1096184,68.5023819 C64.3195391,70.4273729 64.4077825,73.4519035 66.3081659,75.2621598 L76.7051225,85.1580158 L66.7273219,85.1580158 C64.1178402,85.1580158 62,87.2965406 62,89.9386225 C62,92.5807044 64.1178402,94.7192292 66.7273219,94.7192292 L79.5478188,94.7192292 L79.5478188,103.735454 L66.7273219,103.735454 C64.1178402,103.735454 62,105.877165 62,108.51606 C62,111.158142 64.1178402,113.296667 66.7273219,113.296667 L79.5478188,113.296667 L79.5478188,125.92703 C79.5478188,128.569112 81.6656589,130.707637 84.2751406,130.707637 C86.8846223,130.707637 89.0024625,128.569112 89.0024625,125.92703 L89.0024625,113.296667 L101.154831,113.296667 C103.764313,113.296667 105.882153,111.158142 105.882153,108.51606 C105.882153,105.877165 103.764313,103.735454 101.154831,103.735454 L89.0024625,103.735454 L89.0024625,94.7192292 L101.157983,94.7192292 Z" id="路径"></path>
        </g>
    </g>
</svg>