<?xml version="1.0" encoding="UTF-8"?>
<svg width="161px" height="158px" viewBox="0 0 161 158" version="1.1" xmlns="http://www.w3.org/2000/svg" xmlns:xlink="http://www.w3.org/1999/xlink">
    <!-- Generator: Sketch 52.4 (67378) - http://www.bohemiancoding.com/sketch -->
    <title>全部</title>
    <desc>Created with Sketch.</desc>
    <g id="Page-1" stroke="none" stroke-width="1" fill="none" fill-rule="evenodd">
        <g id="全部" fill="#FB6D70" fill-rule="nonzero">
            <path d="M50.8306473,76.6545455 L21.3023558,76.6545455 C9.54641872,76.6425191 0.0193371989,67.0782223 0.00735766537,55.2763636 L0.00735766537,25.6109091 C0.0193372846,13.8090504 9.54641878,4.24475376 21.3023558,4.23272734 L50.8523805,4.23272734 C62.6111449,4.24275251 72.1410148,13.8098484 72.1510011,25.6145455 L72.1510011,55.2763636 C72.1510011,67.0581817 62.5883552,76.6581817 50.8306473,76.6581819 L50.8306473,76.6545455 Z M21.3023558,15.3236364 C15.6566178,15.3276476 11.0808403,19.9212993 11.0768447,25.5890909 L11.0768447,55.2545455 C11.0788423,60.9237572 15.6552043,65.5196231 21.3023558,65.5236364 L50.8523805,65.5236364 C56.5009466,65.5216294 61.0795148,60.9251763 61.0815139,55.2545455 L61.0815139,25.6109091 C61.0775163,19.9416984 56.4995331,15.3474599 50.8523805,15.3454545 L21.3023558,15.3454545 L21.3023558,15.3236364 Z M50.8306473,157.989091 L21.3023558,157.989091 C9.54500603,157.977061 0.0173407617,148.410551 0.00735766537,136.607273 L0.00735766537,106.92 C0.0213331567,95.1195614 9.54783111,85.5574773 21.3023558,85.5454545 L50.8523805,85.5454545 C62.6083198,85.5554732 72.1370221,95.1181432 72.1510011,106.92 L72.1510011,136.589091 C72.1370256,148.403588 62.5991755,157.977068 50.8306473,157.989091 Z M21.3023558,96.6545455 C15.6566178,96.6585567 11.0808403,101.252208 11.0768447,106.92 L11.0768447,136.589091 C11.0808403,142.256883 15.6566178,146.850534 21.3023558,146.854545 L50.8523805,146.854545 C56.4995331,146.85254 61.0775163,142.258302 61.0815139,136.589091 L61.0815139,106.92 C61.0775163,101.250789 56.4995331,96.6565509 50.8523805,96.6545455 L21.3023558,96.6545455 Z M132.511581,157.989091 L102.961556,157.989091 C91.202792,157.979066 81.6729222,148.41197 81.662936,136.607273 L81.662936,106.92 C81.6769151,95.1181433 91.2056172,85.5554733 102.961556,85.5454545 L132.511581,85.5454545 C144.266106,85.5574772 153.792604,95.1195614 153.806579,106.92 L153.806579,136.589091 C153.809462,142.262461 151.567011,147.70456 147.57264,151.717943 C143.57827,155.731327 138.159254,157.987163 132.507959,157.989091 L132.511581,157.989091 Z M102.961556,96.6545455 C97.3144039,96.6565509 92.7364207,101.250789 92.732423,106.92 L92.732423,136.589091 C92.7364207,142.258302 97.3144039,146.85254 102.961556,146.854545 L132.511581,146.854545 C138.157319,146.850534 142.733097,142.256883 142.737092,136.589091 L142.737092,106.92 C142.733097,101.252208 138.157319,96.6585567 132.511581,96.6545455 L102.961556,96.6545455 Z M108.977828,70.7496159 L90.1573251,51.85232 C86.5539469,48.2432276 84.5371714,43.3378352 84.5558683,38.2279264 C84.5558683,33.0631022 86.5491647,28.2388879 90.1573251,24.5969826 L108.981091,5.6996868 C112.57614,2.08223299 117.462445,0.0575794425 122.552471,0.0763493252 C127.700461,0.0763493252 132.502642,2.08070721 136.130376,5.70296194 L154.954142,24.5969826 C158.558325,28.206875 160.575167,33.1136086 160.555598,38.2246514 C160.555598,43.3894756 158.55904,48.2136899 154.950879,51.855595 L136.110802,70.7299653 C132.527723,74.3577133 127.644592,76.3905652 122.555733,76.3729533 C117.464232,76.3894659 112.57673,74.3652897 108.977828,70.7496159 Z" id="形状"></path>
        </g>
    </g>
</svg>