<?xml version="1.0" encoding="UTF-8"?>
<svg width="206px" height="206px" viewBox="0 0 206 206" version="1.1" xmlns="http://www.w3.org/2000/svg" xmlns:xlink="http://www.w3.org/1999/xlink">
    <!-- Generator: Sketch 52.4 (67378) - http://www.bohemiancoding.com/sketch -->
    <title>分组 7</title>
    <desc>Created with Sketch.</desc>
    <g id="Page-1" stroke="none" stroke-width="1" fill="none" fill-rule="evenodd">
        <g id="分组-7" transform="translate(3.000000, 3.000000)" stroke="#FB6D70">
            <g id="01转账汇款" fill="#FB6D70" stroke-width="6">
                <path d="M6.91154129,77.4296774 L36.8011471,77.4296774 C40.5998568,77.4296774 43.6828675,74.3512544 43.6828675,70.547957 C43.6828675,66.7446596 40.5998568,63.6662366 36.8011471,63.6662366 L21.8494624,63.6662366 C35.8147671,33.5013619 66.0484587,13.7921146 99.9111112,13.7921146 C147.385806,13.7921146 186.006022,52.4215054 186.006022,99.9099641 C186.006022,103.713262 189.089032,106.791685 192.887742,106.791685 C196.686452,106.791685 199.769462,103.713262 199.769462,99.9099641 C199.764875,44.8332617 154.97405,0.0286737634 99.9111112,0.0286737634 C63.8967742,0.0286737634 31.4379929,19.2516129 13.7932617,49.4073118 L13.7932617,20.6692473 C13.7932617,16.8659499 10.710251,13.7875269 6.91154129,13.7875269 C3.11283161,13.7875269 0.0298208602,16.8659499 0.0298208602,20.6692473 L0.0298208602,70.547957 C0.0298208602,74.3466667 3.11283161,77.4296774 6.91154129,77.4296774 Z" id="路径"></path>
                <path d="M192.906093,119.550394 L163.016487,119.550394 C159.217778,119.550394 156.134767,122.633405 156.134767,126.432115 C156.134767,130.235412 159.217778,133.313835 163.016487,133.313835 L179.211469,133.313835 C165.911398,164.749534 134.567455,186.018638 99.9065232,186.018638 C52.431828,186.018638 13.8070249,147.389247 13.8070249,99.9053761 C13.8070249,96.1020787 10.7240142,93.0236557 6.92530452,93.0236557 C3.12659484,93.0236557 0.043584086,96.1020787 0.043584086,99.9053761 C0.043584086,154.977491 44.8435841,199.782079 99.9065232,199.782079 C135.618065,199.782079 168.342939,180.329749 186.024373,150.421792 L186.024373,176.310824 C186.024373,180.114122 189.107383,183.192545 192.906093,183.192545 C196.704803,183.192545 199.787814,180.114122 199.787814,176.310824 L199.787814,126.432115 C199.787814,122.633405 196.704803,119.550394 192.906093,119.550394 Z" id="路径"></path>
            </g>
            <g id="zhanghao-(1)" transform="translate(60.000000, 58.000000)" fill="#BFBFBF" fill-rule="nonzero" stroke-width="8">
                <path d="M53.435491,43.8293467 C59.8304479,39.672314 63.9879905,32.3099901 63.9879905,23.9959246 C63.9879905,10.8793923 53.1182048,0 39.9945934,0 C26.8709819,0 15.9957258,10.8739225 15.9957258,23.9904548 C15.9957258,32.3099901 20.1587388,39.6668442 26.5591662,43.8238769 C10.5999334,49.5064453 -0.0425099156,64.631985 0.000127647821,81.5708284 C0.000127647821,83.4961909 1.28021313,84.7761194 3.20034136,84.7761194 C5.12594004,84.7761194 6.40055507,83.4961909 6.40055507,81.5708284 C6.40055507,63.0166077 21.4435675,47.9754399 40.0000638,47.9754399 C58.5565601,47.9754399 73.5995726,63.0166077 73.5995726,81.5708284 C73.5995726,83.4961909 74.8741876,84.7761194 76.7997863,84.7761194 C78.7199145,84.7761194 80,83.4961909 80,81.5708284 C79.9945295,64.3027331 68.7965168,49.5835552 53.435491,43.8293467 Z M22.3961532,23.9904548 C22.3961532,14.3964608 30.3994227,6.39417276 39.9945934,6.39417276 C49.5897641,6.39417276 57.5875631,14.3964608 57.5875631,23.9904548 C57.5875631,33.5899187 49.5897641,41.5867369 39.9945934,41.5867369 C30.3994227,41.5867369 22.3961532,33.5899187 22.3961532,23.9904548 Z" id="形状"></path>
            </g>
        </g>
    </g>
</svg>