<?xml version="1.0" encoding="UTF-8"?>
<svg width="139px" height="196px" viewBox="0 0 139 196" version="1.1" xmlns="http://www.w3.org/2000/svg" xmlns:xlink="http://www.w3.org/1999/xlink">
    <!-- Generator: Sketch 52.4 (67378) - http://www.bohemiancoding.com/sketch -->
    <title>语音</title>
    <desc>Created with Sketch.</desc>
    <g id="Page-1" stroke="none" stroke-width="1" fill="none" fill-rule="evenodd">
        <g id="语音" fill="#FB6D70">
            <path d="M132.938281,61.2179687 C129.742578,61.2179687 127.160352,63.8757812 127.160352,67.1601562 C127.160352,67.5246094 127.156055,97.1113281 127.14707,97.9378906 C126.64043,129.791406 100.716016,155.702344 69.3603516,155.702344 C37.8759766,155.702344 11.9470703,129.675781 11.5693359,97.6980469 L11.5648438,67.1601562 C11.5648438,63.8800781 8.9828125,61.2179687 5.78710938,61.2179687 C2.59160156,61.2179687 0.009375,63.8757812 0.009375,67.1601562 L0.013671875,97.83125 C0.453710938,134.324609 28.4980469,164.311328 63.6314453,167.293555 C63.6271484,167.37793 63.5871094,167.449023 63.5871094,167.529102 L63.5871094,183.635742 L37.3070313,183.635742 C34.1115234,183.635742 31.5292969,186.293555 31.5292969,189.57793 C31.5292969,192.866992 34.1115234,195.520117 37.3070313,195.520117 L101.418359,195.520117 C104.613672,195.520117 107.195898,192.862305 107.195898,189.57793 C107.195898,186.289062 104.613867,183.635742 101.418164,183.635742 L75.1427734,183.635742 L75.1427734,167.533594 C75.1427734,167.449023 75.1027344,167.37793 75.0982422,167.298047 C110.09375,164.320117 138.129297,134.466797 138.711523,98.1378906 L138.724805,67.1646484 C138.720508,63.8755859 136.138281,61.2179687 132.938281,61.2179687 Z" id="路径"></path>
            <path d="M69.3603516,140.066797 C93.6404297,140.066797 113.324805,120.382422 113.324805,96.1023438 L113.324805,44.1556641 C113.324805,19.8757813 93.6404297,0.191210938 69.3603516,0.191210938 C45.0802734,0.191210938 25.3958984,19.8757813 25.3958984,44.1556641 L25.3958984,96.0980469 C25.3958984,120.382422 45.0804688,140.066797 69.3603516,140.066797 Z" id="路径"></path>
        </g>
    </g>
</svg>