<?xml version="1.0" encoding="UTF-8"?>
<svg width="206px" height="206px" viewBox="0 0 206 206" version="1.1" xmlns="http://www.w3.org/2000/svg" xmlns:xlink="http://www.w3.org/1999/xlink">
    <!-- Generator: Sketch 52.4 (67378) - http://www.bohemiancoding.com/sketch -->
    <title>01转账汇款</title>
    <desc>Created with Sketch.</desc>
    <g id="Page-1" stroke="none" stroke-width="1" fill="none" fill-rule="evenodd">
        <g id="01转账汇款" transform="translate(3.000000, 3.000000)" fill="#FB6D70" stroke="#FB6D70">
            <path d="M6.91154129,77.4296774 L36.8011471,77.4296774 C40.5998568,77.4296774 43.6828675,74.3512544 43.6828675,70.547957 C43.6828675,66.7446596 40.5998568,63.6662366 36.8011471,63.6662366 L21.8494624,63.6662366 C35.8147671,33.5013619 66.0484587,13.7921146 99.9111112,13.7921146 C147.385806,13.7921146 186.006022,52.4215054 186.006022,99.9099641 C186.006022,103.713262 189.089032,106.791685 192.887742,106.791685 C196.686452,106.791685 199.769462,103.713262 199.769462,99.9099641 C199.764875,44.8332617 154.97405,0.0286737634 99.9111112,0.0286737634 C63.8967742,0.0286737634 31.4379929,19.2516129 13.7932617,49.4073118 L13.7932617,20.6692473 C13.7932617,16.8659499 10.710251,13.7875269 6.91154129,13.7875269 C3.11283161,13.7875269 0.0298208602,16.8659499 0.0298208602,20.6692473 L0.0298208602,70.547957 C0.0298208602,74.3466667 3.11283161,77.4296774 6.91154129,77.4296774 Z" id="路径" stroke-width="6"></path>
            <path d="M192.906093,119.550394 L163.016487,119.550394 C159.217778,119.550394 156.134767,122.633405 156.134767,126.432115 C156.134767,130.235412 159.217778,133.313835 163.016487,133.313835 L179.211469,133.313835 C165.911398,164.749534 134.567455,186.018638 99.9065232,186.018638 C52.431828,186.018638 13.8070249,147.389247 13.8070249,99.9053761 C13.8070249,96.1020787 10.7240142,93.0236557 6.92530452,93.0236557 C3.12659484,93.0236557 0.043584086,96.1020787 0.043584086,99.9053761 C0.043584086,154.977491 44.8435841,199.782079 99.9065232,199.782079 C135.618065,199.782079 168.342939,180.329749 186.024373,150.421792 L186.024373,176.310824 C186.024373,180.114122 189.107383,183.192545 192.906093,183.192545 C196.704803,183.192545 199.787814,180.114122 199.787814,176.310824 L199.787814,126.432115 C199.787814,122.633405 196.704803,119.550394 192.906093,119.550394 Z" id="路径" stroke-width="6"></path>
            <path d="M126.309391,97.6206452 C130.1081,97.6206452 133.191111,94.5422222 133.191111,90.7389247 C133.191111,86.9356273 130.1081,83.8572043 126.309391,83.8572043 L112.490896,83.8572043 L127.626093,69.612043 C130.397133,67.0061649 130.525592,62.6523297 127.915126,59.8812903 C125.30466,57.110251 120.955412,56.9909677 118.188961,59.5876703 L101.604014,75.204588 L85.0144804,59.5876703 C82.2434411,56.9909677 77.8941938,57.110251 75.2883155,59.8812903 C72.6824372,62.6523297 72.8108961,67.0061649 75.5773477,69.612043 L90.7125449,83.8572043 L76.1875271,83.8572043 C72.3888174,83.8572043 69.3058067,86.9356273 69.3058067,90.7389247 C69.3058067,94.5422222 72.3888174,97.6206452 76.1875271,97.6206452 L94.8507529,97.6206452 L94.8507529,110.59957 L76.1875271,110.59957 C72.3888174,110.59957 69.3058067,113.682581 69.3058067,117.48129 C69.3058067,121.284588 72.3888174,124.363011 76.1875271,124.363011 L94.8507529,124.363011 L94.8507529,142.544516 C94.8507529,146.347814 97.9337637,149.426237 101.732473,149.426237 C105.531183,149.426237 108.614194,146.347814 108.614194,142.544516 L108.614194,124.363011 L126.304803,124.363011 C130.103513,124.363011 133.186523,121.284588 133.186523,117.48129 C133.186523,113.682581 130.103513,110.59957 126.304803,110.59957 L108.614194,110.59957 L108.614194,97.6206452 L126.309391,97.6206452 Z" id="路径" stroke-width="7"></path>
        </g>
    </g>
</svg>