<?xml version="1.0" encoding="UTF-8"?>
<svg width="223px" height="161px" viewBox="0 0 223 161" version="1.1" xmlns="http://www.w3.org/2000/svg" xmlns:xlink="http://www.w3.org/1999/xlink">
    <!-- Generator: Sketch 52.4 (67378) - http://www.bohemiancoding.com/sketch -->
    <title>分组 8</title>
    <desc>Created with Sketch.</desc>
    <g id="Page-1" stroke="none" stroke-width="1" fill="none" fill-rule="evenodd">
        <g id="分组-8" transform="translate(3.000000, 3.000000)" fill-rule="nonzero">
            <path d="M172.40868,11.6869565 C174.75865,11.6869565 176.992285,12.6144927 178.690778,14.3072464 C180.389271,16 181.319952,18.226087 181.319952,20.568116 L181.319952,115.594203 C181.319952,117.936232 180.389271,120.162319 178.690778,121.855073 C176.992285,123.547826 174.75865,124.475362 172.40868,124.475362 L20.4749849,124.475362 C18.125015,124.475362 15.8913802,123.547826 14.1928872,121.855073 C12.4943942,120.162319 11.563713,117.936232 11.5637131,115.594203 L11.5637131,20.568116 C11.5637131,18.226087 12.4943942,16 14.1928872,14.3072464 C15.8913802,12.6144929 18.125015,11.6869565 20.4749849,11.6869565 L172.40868,11.6869565 Z M172.40868,0.162318783 L20.4749849,0.162318783 C9.21374322,0.162318783 0.0232669702,9.34492748 0.0232669702,20.5449275 L0.0232669702,115.594203 C0.0232669702,126.817391 9.23701019,135.976812 20.4749849,135.976812 L172.40868,135.976812 C183.669922,135.976812 192.860398,126.794203 192.860398,115.594203 L192.860398,20.568116 C192.860398,9.34492765 183.646655,0.162318957 172.40868,0.162318783 Z" id="形状" stroke="#FB6D70" stroke-width="6" fill="#FB6D70"></path>
            <g id="飞机" transform="translate(105.000000, 82.000000)">
                <path d="M33.0188094,3.65396703e-15 C31.0246831,3.65396703e-15 29.0817408,0.346604596 27.3988129,1.00073078 L20.0344677,3.86201857 C16.4648998,5.25255095 13.9568868,8.01715972 13.1635357,11.4482367 C12.4573827,14.524526 13.2570341,17.7546322 15.3153085,20.1400926 C15.4146054,20.2552846 15.5128785,20.3632771 15.6193411,20.4712697 L30.4503993,35.6930739 L26.1918956,37.3489593 L23.946968,34.0413024 C23.8691684,33.9261104 23.7852268,33.8140038 23.7012851,33.7018973 C21.6999931,31.0720221 18.5030443,29.5662977 14.9355237,29.5662977 C13.4393923,29.5631197 11.955736,29.8396946 10.5603206,30.3818984 L5.22593048,32.453298 C4.79496172,32.6230005 3.47748713,33.1351937 2.26545145,34.402306 C0.111631295,36.6475221 -0.570138773,39.928438 0.495510838,42.9583999 L6.91602415,61.2461634 L7.02965249,61.5691125 L7.09823897,61.7645276 C7.6755938,63.428641 7.9796264,64.2442418 8.24271185,64.8294584 C10.9871947,71.4180312 17.780327,76 24.845758,76 C26.7631083,76 28.6180143,75.6575094 30.3521262,74.9838417 L93.124109,50.5744445 C96.365076,49.3145316 119.132716,36.322516 114.339852,22.6640323 C113.111437,19.1599318 109.137516,13.2830812 96.3476735,13.2830812 C91.0900592,13.2830812 85.4997494,14.2838119 81.0047759,16.0322624 L75.2383933,18.2733645 L40.8919229,1.89449752 C38.590693,0.669553685 35.805263,0 33.0188094,3.65396703e-15 Z M37.7093055,8.82967494 L74.955858,26.5970173 L83.5394045,23.2585054 C87.2195298,21.8299185 92.0052281,20.9865483 96.3476735,20.9865483 C101.714821,20.9865483 106.401223,22.2762877 107.477109,25.334019 L107.498606,25.391615 C109.438478,30.9249465 95.8460708,41.3076569 90.5884566,43.351287 L27.8164738,67.7606842 C26.8680173,68.1236834 25.8606766,68.3064307 24.845758,68.2996184 C20.7592323,68.2996184 16.4638761,65.5422091 14.8945766,61.6225945 C14.6888171,61.2070804 14.0572073,59.3701789 13.892395,58.9001543 L13.7797904,58.5772052 L13.7582931,58.5154952 L7.35825338,40.2894416 C7.22005675,39.8883265 7.5118052,39.778277 7.76465386,39.677484 L13.0949493,37.6050559 C13.6824189,37.3789459 14.3064251,37.2638781 14.9355237,37.2656508 C16.196696,37.2656508 17.3872344,37.7202479 17.9942759,38.5214496 L23.4883599,46.6075189 L43.8524019,38.6901237 L20.7254509,14.9564511 C19.609641,13.6667118 20.4070868,11.9295748 22.5701201,11.0862046 L29.9334415,8.22491677 C30.8189237,7.87831218 31.8989048,7.70141013 33.0188094,7.70141013 C34.6280324,7.70141013 36.3324576,8.06755623 37.7093055,8.82967494 Z" id="形状" fill="#FB6D70"></path>
                <path d="M37.2802533,9.25483709 L74.3932804,27.0677625 L82.9460557,23.7206854 C86.6129881,22.2884334 91.3815301,21.4428995 95.7084082,21.4428995 C101.056315,21.4428995 105.725916,22.7359477 106.797946,25.8015238 L106.819366,25.8592676 C108.752283,31.4067952 95.2086038,41.8161429 89.9698376,43.865016 L27.4228865,68.3370367 C26.47783,68.7009672 25.4741005,68.8841833 24.4628204,68.8773535 C20.3909445,68.8773535 16.1109868,66.11287 14.547313,62.1831994 C14.3422912,61.7666193 13.7129456,59.9250051 13.5487242,59.4537746 L13.4365232,59.129997 L13.415103,59.0681286 L7.03800681,40.7953153 C6.9003056,40.3931711 7.19100816,40.2828392 7.44295038,40.1817876 L12.7541372,38.1040426 C13.3395008,37.8773525 13.96127,37.7619895 14.5881133,37.7637668 C15.8447644,37.7637668 17.0310349,38.2195302 17.6359002,39.0227874 L23.1102884,47.1296019 L43.4013273,39.1918942 L20.3572842,15.3973318 C19.2454744,14.1042836 20.0400614,12.3626899 22.1953404,11.5171559 L29.532265,8.64852738 C30.4145728,8.30103356 31.4906823,8.12367766 32.6065721,8.12367766 C34.2100263,8.12367766 35.9083412,8.49076312 37.2802533,9.25483709 Z" id="路径" fill="#FFFFFF"></path>
            </g>
            <polygon id="形状" stroke="#FB6D70" stroke-width="6" fill="#FB6D70" points="8.09692586 37.0086957 185.368415 37.0086957 185.368415 48.5101449 8.09692586 48.5101449"></polygon>
        </g>
    </g>
</svg>